<svg width="400" height="400" fill="none" xmlns="http://www.w3.org/2000/svg"><path d="M0 6a6 6 0 0 1 6-6h388a6 6 0 0 1 6 6v388a6 6 0 0 1-6 6H6a6 6 0 0 1-6-6V6Z" fill="#292F36"/><path fill-rule="evenodd" clip-rule="evenodd" d="M370 155H30v90h340v-90Zm-345-5v100h350V150H25Z" fill="#FFFFF3"/><circle cx="243.026" cy="224.395" transform="rotate(-90.76 243.026 224.395)" fill="#FFFFF3" r="2"/><circle cx="248.973" cy="224.395" transform="rotate(-90.76 248.973 224.395)" fill="#FFFFF3" r="2"/><circle cx="254.973" cy="224.395" transform="rotate(-90.76 254.973 224.395)" fill="#FFFFF3" r="2"/><circle cx="260.973" cy="224.395" transform="rotate(-90.76 260.973 224.395)" fill="#FFFFF3" r="2"/><circle cx="266.973" cy="224.395" transform="rotate(-90.76 266.973 224.395)" fill="#FFFFF3" r="2"/><circle cx="272.973" cy="224.395" transform="rotate(-90.76 272.973 224.395)" fill="#FFFFF3" r="2"/><circle cx="278.974" cy="224.395" transform="rotate(-90.76 278.974 224.395)" fill="#FFFFF3" r="2"/><circle cx="284.974" cy="224.395" transform="rotate(-90.76 284.974 224.395)" fill="#FFFFF3" r="2"/><circle cx="290.974" cy="224.395" transform="rotate(-90.76 290.974 224.395)" fill="#FFFFF3" r="2"/><circle cx="296.974" cy="224.395" transform="rotate(-90.76 296.974 224.395)" fill="#FFFFF3" r="2"/><circle cx="302.974" cy="224.395" transform="rotate(-90.76 302.974 224.395)" fill="#FFFFF3" r="2"/><circle cx="308.974" cy="224.395" transform="rotate(-90.76 308.974 224.395)" fill="#FFFFF3" r="2"/><circle cx="314.974" cy="224.395" transform="rotate(-90.76 314.974 224.395)" fill="#FFFFF3" r="2"/><circle cx="320.974" cy="224.395" transform="rotate(-90.76 320.974 224.395)" fill="#FFFFF3" r="2"/><circle cx="326.974" cy="224.395" transform="rotate(-90.76 326.974 224.395)" fill="#FFFFF3" r="2"/><circle cx="333.026" cy="224.395" transform="rotate(-90.76 333.026 224.395)" fill="#FFFFF3" r="2"/><circle cx="339.079" cy="224.395" transform="rotate(-90.76 339.079 224.395)" fill="#FFFFF3" r="2"/><circle cx="345.132" cy="224.395" transform="rotate(-90.76 345.132 224.395)" fill="#FFFFF3" r="2"/><circle cx="351.185" cy="224.395" transform="rotate(-90.76 351.185 224.395)" fill="#FFFFF3" r="2"/><circle cx="243.026" cy="217.342" transform="rotate(-90.76 243.026 217.342)" fill="#FFFFF3" r="2"/><circle cx="248.973" cy="217.342" transform="rotate(-90.76 248.973 217.342)" fill="#FFFFF3" r="2"/><circle cx="254.973" cy="217.342" transform="rotate(-90.76 254.973 217.342)" fill="#FFFFF3" r="2"/><circle cx="260.973" cy="217.342" transform="rotate(-90.76 260.973 217.342)" fill="#FFFFF3" r="2"/><circle cx="266.973" cy="217.342" transform="rotate(-90.76 266.973 217.342)" fill="#FFFFF3" r="2"/><circle cx="272.973" cy="217.342" transform="rotate(-90.76 272.973 217.342)" fill="#FFFFF3" r="2"/><circle cx="278.974" cy="217.342" transform="rotate(-90.76 278.974 217.342)" fill="#FFFFF3" r="2"/><circle cx="284.974" cy="217.342" transform="rotate(-90.76 284.974 217.342)" fill="#FFFFF3" r="2"/><circle cx="290.974" cy="217.342" transform="rotate(-90.76 290.974 217.342)" fill="#FFFFF3" r="2"/><circle cx="296.974" cy="217.342" transform="rotate(-90.76 296.974 217.342)" fill="#FFFFF3" r="2"/><circle cx="302.974" cy="217.342" transform="rotate(-90.76 302.974 217.342)" fill="#FFFFF3" r="2"/><circle cx="308.974" cy="217.342" transform="rotate(-90.76 308.974 217.342)" fill="#FFFFF3" r="2"/><circle cx="314.974" cy="217.342" transform="rotate(-90.76 314.974 217.342)" fill="#FFFFF3" r="2"/><circle cx="320.974" cy="217.342" transform="rotate(-90.76 320.974 217.342)" fill="#FFFFF3" r="2"/><circle cx="326.974" cy="217.342" transform="rotate(-90.76 326.974 217.342)" fill="#FFFFF3" r="2"/><circle cx="333.026" cy="217.342" transform="rotate(-90.76 333.026 217.342)" fill="#FFFFF3" r="2"/><circle cx="339.079" cy="217.342" transform="rotate(-90.76 339.079 217.342)" fill="#FFFFF3" r="2"/><circle cx="345.132" cy="217.342" transform="rotate(-90.76 345.132 217.342)" fill="#FFFFF3" r="2"/><circle cx="351.185" cy="217.342" transform="rotate(-90.76 351.185 217.342)" fill="#FFFFF3" r="2"/><circle cx="243.026" cy="210.29" transform="rotate(-90.76 243.026 210.29)" fill="#FFFFF3" r="2"/><circle cx="248.973" cy="210.29" transform="rotate(-90.76 248.973 210.29)" fill="#FFFFF3" r="2"/><circle cx="254.973" cy="210.29" transform="rotate(-90.76 254.973 210.29)" fill="#FFFFF3" r="2"/><circle cx="260.973" cy="210.29" transform="rotate(-90.76 260.973 210.29)" fill="#FFFFF3" r="2"/><circle cx="266.973" cy="210.29" transform="rotate(-90.76 266.973 210.29)" fill="#FFFFF3" r="2"/><circle cx="272.973" cy="210.29" transform="rotate(-90.76 272.973 210.29)" fill="#FFFFF3" r="2"/><circle cx="278.974" cy="210.29" transform="rotate(-90.76 278.974 210.29)" fill="#FFFFF3" r="2"/><circle cx="284.974" cy="210.29" transform="rotate(-90.76 284.974 210.29)" fill="#FFFFF3" r="2"/><circle cx="290.974" cy="210.29" transform="rotate(-90.76 290.974 210.29)" fill="#FFFFF3" r="2"/><circle cx="296.974" cy="210.29" transform="rotate(-90.76 296.974 210.29)" fill="#FFFFF3" r="2"/><circle cx="302.974" cy="210.29" transform="rotate(-90.76 302.974 210.29)" fill="#FFFFF3" r="2"/><circle cx="308.974" cy="210.29" transform="rotate(-90.76 308.974 210.29)" fill="#FFFFF3" r="2"/><circle cx="314.974" cy="210.29" transform="rotate(-90.76 314.974 210.29)" fill="#FFFFF3" r="2"/><circle cx="320.974" cy="210.29" transform="rotate(-90.76 320.974 210.29)" fill="#FFFFF3" r="2"/><circle cx="326.974" cy="210.29" transform="rotate(-90.76 326.974 210.29)" fill="#FFFFF3" r="2"/><circle cx="333.026" cy="210.29" transform="rotate(-90.76 333.026 210.29)" fill="#FFFFF3" r="2"/><circle cx="339.079" cy="210.29" transform="rotate(-90.76 339.079 210.29)" fill="#FFFFF3" r="2"/><circle cx="345.132" cy="210.29" transform="rotate(-90.76 345.132 210.29)" fill="#FFFFF3" r="2"/><circle cx="351.185" cy="210.29" transform="rotate(-90.76 351.185 210.29)" fill="#FFFFF3" r="2"/><circle cx="243.026" cy="203.237" transform="rotate(-90.76 243.026 203.237)" fill="#FFFFF3" r="2"/><circle cx="248.973" cy="203.237" transform="rotate(-90.76 248.973 203.237)" fill="#FFFFF3" r="2"/><circle cx="254.973" cy="203.237" transform="rotate(-90.76 254.973 203.237)" fill="#FFFFF3" r="2"/><circle cx="260.973" cy="203.237" transform="rotate(-90.76 260.973 203.237)" fill="#FFFFF3" r="2"/><circle cx="266.973" cy="203.237" transform="rotate(-90.76 266.973 203.237)" fill="#FFFFF3" r="2"/><circle cx="272.973" cy="203.237" transform="rotate(-90.76 272.973 203.237)" fill="#FFFFF3" r="2"/><circle cx="278.974" cy="203.237" transform="rotate(-90.76 278.974 203.237)" fill="#FFFFF3" r="2"/><circle cx="284.974" cy="203.237" transform="rotate(-90.76 284.974 203.237)" fill="#FFFFF3" r="2"/><circle cx="290.974" cy="203.237" transform="rotate(-90.76 290.974 203.237)" fill="#FFFFF3" r="2"/><circle cx="296.974" cy="203.237" transform="rotate(-90.76 296.974 203.237)" fill="#FFFFF3" r="2"/><circle cx="302.974" cy="203.237" transform="rotate(-90.76 302.974 203.237)" fill="#FFFFF3" r="2"/><circle cx="308.974" cy="203.237" transform="rotate(-90.76 308.974 203.237)" fill="#FFFFF3" r="2"/><circle cx="314.974" cy="203.237" transform="rotate(-90.76 314.974 203.237)" fill="#FFFFF3" r="2"/><circle cx="320.974" cy="203.237" transform="rotate(-90.76 320.974 203.237)" fill="#FFFFF3" r="2"/><circle cx="326.974" cy="203.237" transform="rotate(-90.76 326.974 203.237)" fill="#FFFFF3" r="2"/><circle cx="333.026" cy="203.237" transform="rotate(-90.76 333.026 203.237)" fill="#FFFFF3" r="2"/><circle cx="339.079" cy="203.237" transform="rotate(-90.76 339.079 203.237)" fill="#FFFFF3" r="2"/><circle cx="345.132" cy="203.237" transform="rotate(-90.76 345.132 203.237)" fill="#FFFFF3" r="2"/><circle cx="351.185" cy="203.237" transform="rotate(-90.76 351.185 203.237)" fill="#FFFFF3" r="2"/><circle cx="243.026" cy="196.184" transform="rotate(-90.76 243.026 196.184)" fill="#FFFFF3" r="2"/><circle cx="248.973" cy="196.184" transform="rotate(-90.76 248.973 196.184)" fill="#FFFFF3" r="2"/><circle cx="254.973" cy="196.184" transform="rotate(-90.76 254.973 196.184)" fill="#FFFFF3" r="2"/><circle cx="260.973" cy="196.184" transform="rotate(-90.76 260.973 196.184)" fill="#FFFFF3" r="2"/><circle cx="266.973" cy="196.184" transform="rotate(-90.76 266.973 196.184)" fill="#FFFFF3" r="2"/><circle cx="272.973" cy="196.184" transform="rotate(-90.76 272.973 196.184)" fill="#FFFFF3" r="2"/><circle cx="278.974" cy="196.184" transform="rotate(-90.76 278.974 196.184)" fill="#FFFFF3" r="2"/><circle cx="284.974" cy="196.184" transform="rotate(-90.76 284.974 196.184)" fill="#FFFFF3" r="2"/><circle cx="290.974" cy="196.184" transform="rotate(-90.76 290.974 196.184)" fill="#FFFFF3" r="2"/><circle cx="296.974" cy="196.184" transform="rotate(-90.76 296.974 196.184)" fill="#FFFFF3" r="2"/><circle cx="302.974" cy="196.184" transform="rotate(-90.76 302.974 196.184)" fill="#FFFFF3" r="2"/><circle cx="308.974" cy="196.184" transform="rotate(-90.76 308.974 196.184)" fill="#FFFFF3" r="2"/><circle cx="314.974" cy="196.184" transform="rotate(-90.76 314.974 196.184)" fill="#FFFFF3" r="2"/><circle cx="320.974" cy="196.184" transform="rotate(-90.76 320.974 196.184)" fill="#FFFFF3" r="2"/><circle cx="326.974" cy="196.184" transform="rotate(-90.76 326.974 196.184)" fill="#FFFFF3" r="2"/><circle cx="333.026" cy="196.184" transform="rotate(-90.76 333.026 196.184)" fill="#FFFFF3" r="2"/><circle cx="339.079" cy="196.184" transform="rotate(-90.76 339.079 196.184)" fill="#FFFFF3" r="2"/><circle cx="345.132" cy="196.184" transform="rotate(-90.76 345.132 196.184)" fill="#FFFFF3" r="2"/><circle cx="351.185" cy="196.184" transform="rotate(-90.76 351.185 196.184)" fill="#FFFFF3" r="2"/><circle cx="243.026" cy="189.132" transform="rotate(-90.76 243.026 189.132)" fill="#FFFFF3" r="2"/><circle cx="248.973" cy="189.132" transform="rotate(-90.76 248.973 189.132)" fill="#FFFFF3" r="2"/><circle cx="254.973" cy="189.132" transform="rotate(-90.76 254.973 189.132)" fill="#FFFFF3" r="2"/><circle cx="260.973" cy="189.132" transform="rotate(-90.76 260.973 189.132)" fill="#FFFFF3" r="2"/><circle cx="266.973" cy="189.132" transform="rotate(-90.76 266.973 189.132)" fill="#FFFFF3" r="2"/><circle cx="272.973" cy="189.132" transform="rotate(-90.76 272.973 189.132)" fill="#FFFFF3" r="2"/><circle cx="278.974" cy="189.132" transform="rotate(-90.76 278.974 189.132)" fill="#FFFFF3" r="2"/><circle cx="284.974" cy="189.132" transform="rotate(-90.76 284.974 189.132)" fill="#FFFFF3" r="2"/><circle cx="290.974" cy="189.132" transform="rotate(-90.76 290.974 189.132)" fill="#FFFFF3" r="2"/><circle cx="296.974" cy="189.132" transform="rotate(-90.76 296.974 189.132)" fill="#FFFFF3" r="2"/><circle cx="302.974" cy="189.132" transform="rotate(-90.76 302.974 189.132)" fill="#FFFFF3" r="2"/><circle cx="308.974" cy="189.132" transform="rotate(-90.76 308.974 189.132)" fill="#FFFFF3" r="2"/><circle cx="314.974" cy="189.132" transform="rotate(-90.76 314.974 189.132)" fill="#FFFFF3" r="2"/><circle cx="320.974" cy="189.132" transform="rotate(-90.76 320.974 189.132)" fill="#FFFFF3" r="2"/><circle cx="326.974" cy="189.132" transform="rotate(-90.76 326.974 189.132)" fill="#FFFFF3" r="2"/><circle cx="333.026" cy="189.132" transform="rotate(-90.76 333.026 189.132)" fill="#FFFFF3" r="2"/><circle cx="339.079" cy="189.132" transform="rotate(-90.76 339.079 189.132)" fill="#FFFFF3" r="2"/><circle cx="345.132" cy="189.132" transform="rotate(-90.76 345.132 189.132)" fill="#FFFFF3" r="2"/><circle cx="351.185" cy="189.132" transform="rotate(-90.76 351.185 189.132)" fill="#FFFFF3" r="2"/><circle cx="243.026" cy="182.079" transform="rotate(-90.76 243.026 182.079)" fill="#FFFFF3" r="2"/><circle cx="248.973" cy="182.079" transform="rotate(-90.76 248.973 182.079)" fill="#FFFFF3" r="2"/><circle cx="254.973" cy="182.079" transform="rotate(-90.76 254.973 182.079)" fill="#FFFFF3" r="2"/><circle cx="260.973" cy="182.079" transform="rotate(-90.76 260.973 182.079)" fill="#FFFFF3" r="2"/><circle cx="266.973" cy="182.079" transform="rotate(-90.76 266.973 182.079)" fill="#FFFFF3" r="2"/><circle cx="272.973" cy="182.079" transform="rotate(-90.76 272.973 182.079)" fill="#FFFFF3" r="2"/><circle cx="278.974" cy="182.079" transform="rotate(-90.76 278.974 182.079)" fill="#FFFFF3" r="2"/><circle cx="284.974" cy="182.079" transform="rotate(-90.76 284.974 182.079)" fill="#FFFFF3" r="2"/><circle cx="290.974" cy="182.079" transform="rotate(-90.76 290.974 182.079)" fill="#FFFFF3" r="2"/><circle cx="296.974" cy="182.079" transform="rotate(-90.76 296.974 182.079)" fill="#FFFFF3" r="2"/><circle cx="302.974" cy="182.079" transform="rotate(-90.76 302.974 182.079)" fill="#FFFFF3" r="2"/><circle cx="308.974" cy="182.079" transform="rotate(-90.76 308.974 182.079)" fill="#FFFFF3" r="2"/><circle cx="314.974" cy="182.079" transform="rotate(-90.76 314.974 182.079)" fill="#FFFFF3" r="2"/><circle cx="320.974" cy="182.079" transform="rotate(-90.76 320.974 182.079)" fill="#FFFFF3" r="2"/><circle cx="326.974" cy="182.079" transform="rotate(-90.76 326.974 182.079)" fill="#FFFFF3" r="2"/><circle cx="333.026" cy="182.079" transform="rotate(-90.76 333.026 182.079)" fill="#FFFFF3" r="2"/><circle cx="339.079" cy="182.079" transform="rotate(-90.76 339.079 182.079)" fill="#FFFFF3" r="2"/><circle cx="345.132" cy="182.079" transform="rotate(-90.76 345.132 182.079)" fill="#FFFFF3" r="2"/><circle cx="351.185" cy="182.079" transform="rotate(-90.76 351.185 182.079)" fill="#FFFFF3" r="2"/><circle cx="243.026" cy="175.026" transform="rotate(-90.76 243.026 175.026)" fill="#FFFFF3" r="2"/><circle cx="248.973" cy="175.026" transform="rotate(-90.76 248.973 175.026)" fill="#FFFFF3" r="2"/><circle cx="254.973" cy="175.026" transform="rotate(-90.76 254.973 175.026)" fill="#FFFFF3" r="2"/><circle cx="260.973" cy="175.026" transform="rotate(-90.76 260.973 175.026)" fill="#FFFFF3" r="2"/><circle cx="266.973" cy="175.026" transform="rotate(-90.76 266.973 175.026)" fill="#FFFFF3" r="2"/><circle cx="272.973" cy="175.026" transform="rotate(-90.76 272.973 175.026)" fill="#FFFFF3" r="2"/><circle cx="278.974" cy="175.026" transform="rotate(-90.76 278.974 175.026)" fill="#FFFFF3" r="2"/><circle cx="284.974" cy="175.026" transform="rotate(-90.76 284.974 175.026)" fill="#FFFFF3" r="2"/><circle cx="290.974" cy="175.026" transform="rotate(-90.76 290.974 175.026)" fill="#FFFFF3" r="2"/><circle cx="296.974" cy="175.026" transform="rotate(-90.76 296.974 175.026)" fill="#FFFFF3" r="2"/><circle cx="302.974" cy="175.026" transform="rotate(-90.76 302.974 175.026)" fill="#FFFFF3" r="2"/><circle cx="308.974" cy="175.026" transform="rotate(-90.76 308.974 175.026)" fill="#FFFFF3" r="2"/><circle cx="314.974" cy="175.026" transform="rotate(-90.76 314.974 175.026)" fill="#FFFFF3" r="2"/><circle cx="320.974" cy="175.026" transform="rotate(-90.76 320.974 175.026)" fill="#FFFFF3" r="2"/><circle cx="326.974" cy="175.026" transform="rotate(-90.76 326.974 175.026)" fill="#FFFFF3" r="2"/><circle cx="333.026" cy="175.026" transform="rotate(-90.76 333.026 175.026)" fill="#FFFFF3" r="2"/><circle cx="339.079" cy="175.026" transform="rotate(-90.76 339.079 175.026)" fill="#FFFFF3" r="2"/><circle cx="345.132" cy="175.026" transform="rotate(-90.76 345.132 175.026)" fill="#FFFFF3" r="2"/><circle cx="351.185" cy="175.026" transform="rotate(-90.76 351.185 175.026)" fill="#FFFFF3" r="2"/><circle cx="67.118" cy="182.119" r="9" transform="rotate(-.76 67.118 182.119)" fill="#FFFFF3"/><circle cx="91.118" cy="182.119" r="9" transform="rotate(-.76 91.118 182.119)" fill="#FFFFF3"/><circle cx="115.119" cy="182.119" r="9" transform="rotate(-.76 115.119 182.119)" fill="#FFFFF3"/></svg>