<svg width="74" height="74" fill="none" xmlns="http://www.w3.org/2000/svg"><path d="m68.942 34.37-8.017-1.452a.688.688 0 0 1-.474-.398l-2.458-5.585a.633.633 0 0 1 .039-.604l4.671-6.633a.434.434 0 0 0-.051-.54l-5.834-5.685a.461.461 0 0 0-.554-.05l-6.928 4.632a.7.7 0 0 1-.622.044l-5.558-2.216a.667.667 0 0 1-.41-.458l-1.544-8.079A.45.45 0 0 0 40.776 7h-8.252a.45.45 0 0 0-.427.346l-1.543 8.08a.666.666 0 0 1-.41.457l-5.558 2.216a.7.7 0 0 1-.623-.044l-6.927-4.631a.462.462 0 0 0-.554.05l-5.835 5.684a.433.433 0 0 0-.051.54l4.671 6.633c.113.16.13.431.039.604l-2.458 5.585a.685.685 0 0 1-.475.398l-8.016 1.453a.445.445 0 0 0-.356.417v8.04c0 .193.16.382.356.416l7.82 1.418a.657.657 0 0 1 .464.4l2.442 5.943a.652.652 0 0 1-.046.606l-4.442 6.307a.434.434 0 0 0 .05.54l5.836 5.684c.14.137.39.16.554.05l6.359-4.252a.638.638 0 0 1 .61-.02l2.804 1.459a.333.333 0 0 0 .46-.166l5.783-13.612a.42.42 0 0 0-.17-.508l-.702-.42a3.296 3.296 0 0 1-.444-.33c-2.531-1.58-4.21-4.343-4.21-7.49 0-4.91 4.085-8.89 9.124-8.89 5.04 0 9.125 3.98 9.125 8.89 0 3.147-1.679 5.91-4.211 7.49a3.266 3.266 0 0 1-.443.33l-.702.42a.422.422 0 0 0-.17.508l5.782 13.613a.333.333 0 0 0 .461.165l2.804-1.459a.637.637 0 0 1 .61.02l6.36 4.253a.464.464 0 0 0 .553-.05l5.835-5.684a.433.433 0 0 0 .051-.54l-4.442-6.307a.654.654 0 0 1-.046-.607l2.441-5.942a.656.656 0 0 1 .464-.4l7.82-1.418a.445.445 0 0 0 .356-.417v-8.04a.445.445 0 0 0-.354-.417Zm-1.401 7.578L60.8 43.17a2.35 2.35 0 0 0-1.128.547c-.26.231-.49.5-.652.919l-2.425 5.899c-.154.35-.187.644-.19.914.01.426.082.836.41 1.322l3.82 5.424-4.283 4.172-5.454-3.647a2.358 2.358 0 0 0-1.32-.389c-.349.004-.708.06-1.11.27l-1.416.737L42.3 48.15c.114-.08.22-.163.326-.251 2.95-1.889 4.903-5.155 4.903-8.856 0-5.855-4.87-10.6-10.88-10.601-6.01 0-10.88 4.746-10.882 10.601.001 3.701 1.955 6.967 4.905 8.855.105.088.21.17.325.251l-4.751 11.19-1.416-.738a2.354 2.354 0 0 0-1.112-.27c-.42.007-.844.082-1.321.39l-5.451 3.646-4.284-4.172 3.821-5.426c.325-.485.398-.893.409-1.32a2.251 2.251 0 0 0-.19-.912l-2.428-5.912a2.289 2.289 0 0 0-.65-.91 2.359 2.359 0 0 0-1.132-.545l-6.735-1.221v-5.901l6.936-1.26a2.384 2.384 0 0 0 1.11-.527c.255-.22.486-.474.657-.877h.001l2.443-5.554c.165-.351.212-.663.215-.968a2.27 2.27 0 0 0-.4-1.303l-4.056-5.757 4.283-4.173 6.022 4.027c.503.319.916.386 1.353.396.286-.003.588-.038.94-.185l5.537-2.208c.429-.165.699-.393.93-.643.24-.278.446-.593.55-1.081L33.62 8.9h6.056l1.343 7.027c.105.498.31.811.55 1.089.234.252.504.48.937.645l5.538 2.209c.347.144.643.179.93.182.434-.01.851-.076 1.353-.395l6.024-4.029 4.283 4.173-4.05 5.751c-.326.474-.398.892-.407 1.31.003.297.048.6.201.936l2.457 5.586c.173.404.404.657.659.877.284.23.603.429 1.108.528l6.939 1.258v5.9Z" fill="#FFFFF3"/></svg>