<svg width="74" height="74" fill="none" xmlns="http://www.w3.org/2000/svg"><path fill-rule="evenodd" clip-rule="evenodd" d="M6.28 28.4c0-1.92 1.92-1.92 13.44-1.92h7.68c7.679 0 5.76 1.92 9.6 1.92 3.839 0 1.92-1.92 9.6-1.92h7.68c11.519 0 13.44 0 13.44 1.92v1.92c0 1.92-1.373.557-1.921 3.84-1.92 11.52-3.84 13.44-13.44 13.44h-1.92s-7.68 0-9.6-5.76c-2.502-7.51-1.096-7.68-3.839-7.68s-1.337.17-3.84 7.68c-1.92 5.76-9.601 5.76-9.601 5.76H21.64c-9.601 0-11.52-1.92-13.44-13.44-.547-3.283-1.92-1.92-1.92-3.84V28.4Zm36.48 2.88s0 8.64 5.76 12.48a.96.96 0 0 0 1.09-1.58c-2.131-1.467-3.458-3.734-4.215-6.162-.328-1.05-.798-3.403-.73-4.573a.96.96 0 1 0-1.905-.164v-.001Zm-23.87 10.9c-2.13-1.467-3.458-3.734-4.215-6.162-.327-1.05-.798-3.403-.73-4.573a.96.96 0 1 0-1.906-.164s0 8.64 5.76 12.48a.96.96 0 0 0 1.09-1.58v-.002Z" fill="#FFFFF3"/></svg>