<svg width="400" height="400" viewBox="0 0 400 400" fill="none" xmlns="http://www.w3.org/2000/svg">
<path d="M0 5.99999C0 2.68629 2.68629 0 6 0H394C397.314 0 400 2.68629 400 6V394C400 397.314 397.314 400 394 400H5.99999C2.68629 400 0 397.314 0 394V5.99999Z" fill="#292F36"/>
<path fill-rule="evenodd" clip-rule="evenodd" d="M370 155H30V245H370V155ZM25 150V250H375V150H25Z" fill="#FFFFF3"/>
<ellipse cx="243.026" cy="224.395" rx="2" ry="2.00001" transform="rotate(-90.7596 243.026 224.395)" fill="#FFFFF3"/>
<ellipse cx="248.973" cy="224.395" rx="2" ry="2.00001" transform="rotate(-90.7596 248.973 224.395)" fill="#FFFFF3"/>
<ellipse cx="254.973" cy="224.395" rx="2" ry="2.00001" transform="rotate(-90.7596 254.973 224.395)" fill="#FFFFF3"/>
<ellipse cx="260.973" cy="224.395" rx="2" ry="2.00001" transform="rotate(-90.7596 260.973 224.395)" fill="#FFFFF3"/>
<ellipse cx="266.973" cy="224.395" rx="2" ry="2.00001" transform="rotate(-90.7596 266.973 224.395)" fill="#FFFFF3"/>
<ellipse cx="272.973" cy="224.395" rx="2" ry="2.00001" transform="rotate(-90.7596 272.973 224.395)" fill="#FFFFF3"/>
<ellipse cx="278.974" cy="224.395" rx="2" ry="2.00001" transform="rotate(-90.7596 278.974 224.395)" fill="#FFFFF3"/>
<ellipse cx="284.974" cy="224.395" rx="2" ry="2.00001" transform="rotate(-90.7596 284.974 224.395)" fill="#FFFFF3"/>
<ellipse cx="290.974" cy="224.395" rx="2" ry="2.00001" transform="rotate(-90.7596 290.974 224.395)" fill="#FFFFF3"/>
<ellipse cx="296.974" cy="224.395" rx="2" ry="2.00001" transform="rotate(-90.7596 296.974 224.395)" fill="#FFFFF3"/>
<ellipse cx="302.974" cy="224.395" rx="2" ry="2.00001" transform="rotate(-90.7596 302.974 224.395)" fill="#FFFFF3"/>
<ellipse cx="308.974" cy="224.395" rx="2" ry="2.00001" transform="rotate(-90.7596 308.974 224.395)" fill="#FFFFF3"/>
<ellipse cx="314.974" cy="224.395" rx="2" ry="2.00001" transform="rotate(-90.7596 314.974 224.395)" fill="#FFFFF3"/>
<ellipse cx="320.974" cy="224.395" rx="2" ry="2.00001" transform="rotate(-90.7596 320.974 224.395)" fill="#FFFFF3"/>
<ellipse cx="326.974" cy="224.395" rx="2" ry="2.00001" transform="rotate(-90.7596 326.974 224.395)" fill="#FFFFF3"/>
<ellipse cx="333.026" cy="224.395" rx="2" ry="2.00001" transform="rotate(-90.7596 333.026 224.395)" fill="#FFFFF3"/>
<ellipse cx="339.079" cy="224.395" rx="2" ry="2.00001" transform="rotate(-90.7596 339.079 224.395)" fill="#FFFFF3"/>
<ellipse cx="345.132" cy="224.395" rx="2" ry="2.00001" transform="rotate(-90.7596 345.132 224.395)" fill="#FFFFF3"/>
<ellipse cx="351.185" cy="224.395" rx="2" ry="2.00001" transform="rotate(-90.7596 351.185 224.395)" fill="#FFFFF3"/>
<ellipse cx="243.026" cy="217.342" rx="2" ry="2.00001" transform="rotate(-90.7596 243.026 217.342)" fill="#FFFFF3"/>
<ellipse cx="248.973" cy="217.342" rx="2" ry="2.00001" transform="rotate(-90.7596 248.973 217.342)" fill="#FFFFF3"/>
<ellipse cx="254.973" cy="217.342" rx="2" ry="2.00001" transform="rotate(-90.7596 254.973 217.342)" fill="#FFFFF3"/>
<ellipse cx="260.973" cy="217.342" rx="2" ry="2.00001" transform="rotate(-90.7596 260.973 217.342)" fill="#FFFFF3"/>
<ellipse cx="266.973" cy="217.342" rx="2" ry="2.00001" transform="rotate(-90.7596 266.973 217.342)" fill="#FFFFF3"/>
<ellipse cx="272.973" cy="217.342" rx="2" ry="2.00001" transform="rotate(-90.7596 272.973 217.342)" fill="#FFFFF3"/>
<ellipse cx="278.974" cy="217.342" rx="2" ry="2.00001" transform="rotate(-90.7596 278.974 217.342)" fill="#FFFFF3"/>
<ellipse cx="284.974" cy="217.342" rx="2" ry="2.00001" transform="rotate(-90.7596 284.974 217.342)" fill="#FFFFF3"/>
<ellipse cx="290.974" cy="217.342" rx="2" ry="2.00001" transform="rotate(-90.7596 290.974 217.342)" fill="#FFFFF3"/>
<ellipse cx="296.974" cy="217.342" rx="2" ry="2.00001" transform="rotate(-90.7596 296.974 217.342)" fill="#FFFFF3"/>
<ellipse cx="302.974" cy="217.342" rx="2" ry="2.00001" transform="rotate(-90.7596 302.974 217.342)" fill="#FFFFF3"/>
<ellipse cx="308.974" cy="217.342" rx="2" ry="2.00001" transform="rotate(-90.7596 308.974 217.342)" fill="#FFFFF3"/>
<ellipse cx="314.974" cy="217.342" rx="2" ry="2.00001" transform="rotate(-90.7596 314.974 217.342)" fill="#FFFFF3"/>
<ellipse cx="320.974" cy="217.342" rx="2" ry="2.00001" transform="rotate(-90.7596 320.974 217.342)" fill="#FFFFF3"/>
<ellipse cx="326.974" cy="217.342" rx="2" ry="2.00001" transform="rotate(-90.7596 326.974 217.342)" fill="#FFFFF3"/>
<ellipse cx="333.026" cy="217.342" rx="2" ry="2.00001" transform="rotate(-90.7596 333.026 217.342)" fill="#FFFFF3"/>
<ellipse cx="339.079" cy="217.342" rx="2" ry="2.00001" transform="rotate(-90.7596 339.079 217.342)" fill="#FFFFF3"/>
<ellipse cx="345.132" cy="217.342" rx="2" ry="2.00001" transform="rotate(-90.7596 345.132 217.342)" fill="#FFFFF3"/>
<ellipse cx="351.185" cy="217.342" rx="2" ry="2.00001" transform="rotate(-90.7596 351.185 217.342)" fill="#FFFFF3"/>
<ellipse cx="243.026" cy="210.29" rx="2" ry="2.00001" transform="rotate(-90.7596 243.026 210.29)" fill="#FFFFF3"/>
<ellipse cx="248.973" cy="210.29" rx="2" ry="2.00001" transform="rotate(-90.7596 248.973 210.29)" fill="#FFFFF3"/>
<ellipse cx="254.973" cy="210.29" rx="2" ry="2.00001" transform="rotate(-90.7596 254.973 210.29)" fill="#FFFFF3"/>
<ellipse cx="260.973" cy="210.29" rx="2" ry="2.00001" transform="rotate(-90.7596 260.973 210.29)" fill="#FFFFF3"/>
<ellipse cx="266.973" cy="210.29" rx="2" ry="2.00001" transform="rotate(-90.7596 266.973 210.29)" fill="#FFFFF3"/>
<ellipse cx="272.973" cy="210.29" rx="2" ry="2.00001" transform="rotate(-90.7596 272.973 210.29)" fill="#FFFFF3"/>
<ellipse cx="278.974" cy="210.29" rx="2" ry="2.00001" transform="rotate(-90.7596 278.974 210.29)" fill="#FFFFF3"/>
<ellipse cx="284.974" cy="210.29" rx="2" ry="2.00001" transform="rotate(-90.7596 284.974 210.29)" fill="#FFFFF3"/>
<ellipse cx="290.974" cy="210.29" rx="2" ry="2.00001" transform="rotate(-90.7596 290.974 210.29)" fill="#FFFFF3"/>
<ellipse cx="296.974" cy="210.29" rx="2" ry="2.00001" transform="rotate(-90.7596 296.974 210.29)" fill="#FFFFF3"/>
<ellipse cx="302.974" cy="210.29" rx="2" ry="2.00001" transform="rotate(-90.7596 302.974 210.29)" fill="#FFFFF3"/>
<ellipse cx="308.974" cy="210.29" rx="2" ry="2.00001" transform="rotate(-90.7596 308.974 210.29)" fill="#FFFFF3"/>
<ellipse cx="314.974" cy="210.29" rx="2" ry="2.00001" transform="rotate(-90.7596 314.974 210.29)" fill="#FFFFF3"/>
<ellipse cx="320.974" cy="210.29" rx="2" ry="2.00001" transform="rotate(-90.7596 320.974 210.29)" fill="#FFFFF3"/>
<ellipse cx="326.974" cy="210.29" rx="2" ry="2.00001" transform="rotate(-90.7596 326.974 210.29)" fill="#FFFFF3"/>
<ellipse cx="333.026" cy="210.29" rx="2" ry="2.00001" transform="rotate(-90.7596 333.026 210.29)" fill="#FFFFF3"/>
<ellipse cx="339.079" cy="210.29" rx="2" ry="2.00001" transform="rotate(-90.7596 339.079 210.29)" fill="#FFFFF3"/>
<ellipse cx="345.132" cy="210.29" rx="2" ry="2.00001" transform="rotate(-90.7596 345.132 210.29)" fill="#FFFFF3"/>
<ellipse cx="351.185" cy="210.29" rx="2" ry="2.00001" transform="rotate(-90.7596 351.185 210.29)" fill="#FFFFF3"/>
<ellipse cx="243.026" cy="203.237" rx="2" ry="2.00001" transform="rotate(-90.7596 243.026 203.237)" fill="#FFFFF3"/>
<ellipse cx="248.973" cy="203.237" rx="2" ry="2.00001" transform="rotate(-90.7596 248.973 203.237)" fill="#FFFFF3"/>
<ellipse cx="254.973" cy="203.237" rx="2" ry="2.00001" transform="rotate(-90.7596 254.973 203.237)" fill="#FFFFF3"/>
<ellipse cx="260.973" cy="203.237" rx="2" ry="2.00001" transform="rotate(-90.7596 260.973 203.237)" fill="#FFFFF3"/>
<ellipse cx="266.973" cy="203.237" rx="2" ry="2.00001" transform="rotate(-90.7596 266.973 203.237)" fill="#FFFFF3"/>
<ellipse cx="272.973" cy="203.237" rx="2" ry="2.00001" transform="rotate(-90.7596 272.973 203.237)" fill="#FFFFF3"/>
<ellipse cx="278.974" cy="203.237" rx="2" ry="2.00001" transform="rotate(-90.7596 278.974 203.237)" fill="#FFFFF3"/>
<ellipse cx="284.974" cy="203.237" rx="2" ry="2.00001" transform="rotate(-90.7596 284.974 203.237)" fill="#FFFFF3"/>
<ellipse cx="290.974" cy="203.237" rx="2" ry="2.00001" transform="rotate(-90.7596 290.974 203.237)" fill="#FFFFF3"/>
<ellipse cx="296.974" cy="203.237" rx="2" ry="2.00001" transform="rotate(-90.7596 296.974 203.237)" fill="#FFFFF3"/>
<ellipse cx="302.974" cy="203.237" rx="2" ry="2.00001" transform="rotate(-90.7596 302.974 203.237)" fill="#FFFFF3"/>
<ellipse cx="308.974" cy="203.237" rx="2" ry="2.00001" transform="rotate(-90.7596 308.974 203.237)" fill="#FFFFF3"/>
<ellipse cx="314.974" cy="203.237" rx="2" ry="2.00001" transform="rotate(-90.7596 314.974 203.237)" fill="#FFFFF3"/>
<ellipse cx="320.974" cy="203.237" rx="2" ry="2.00001" transform="rotate(-90.7596 320.974 203.237)" fill="#FFFFF3"/>
<ellipse cx="326.974" cy="203.237" rx="2" ry="2.00001" transform="rotate(-90.7596 326.974 203.237)" fill="#FFFFF3"/>
<ellipse cx="333.026" cy="203.237" rx="2" ry="2.00001" transform="rotate(-90.7596 333.026 203.237)" fill="#FFFFF3"/>
<ellipse cx="339.079" cy="203.237" rx="2" ry="2.00001" transform="rotate(-90.7596 339.079 203.237)" fill="#FFFFF3"/>
<ellipse cx="345.132" cy="203.237" rx="2" ry="2.00001" transform="rotate(-90.7596 345.132 203.237)" fill="#FFFFF3"/>
<ellipse cx="351.185" cy="203.237" rx="2" ry="2.00001" transform="rotate(-90.7596 351.185 203.237)" fill="#FFFFF3"/>
<ellipse cx="243.026" cy="196.184" rx="2" ry="2.00001" transform="rotate(-90.7596 243.026 196.184)" fill="#FFFFF3"/>
<ellipse cx="248.973" cy="196.184" rx="2" ry="2.00001" transform="rotate(-90.7596 248.973 196.184)" fill="#FFFFF3"/>
<ellipse cx="254.973" cy="196.184" rx="2" ry="2.00001" transform="rotate(-90.7596 254.973 196.184)" fill="#FFFFF3"/>
<ellipse cx="260.973" cy="196.184" rx="2" ry="2.00001" transform="rotate(-90.7596 260.973 196.184)" fill="#FFFFF3"/>
<ellipse cx="266.973" cy="196.184" rx="2" ry="2.00001" transform="rotate(-90.7596 266.973 196.184)" fill="#FFFFF3"/>
<ellipse cx="272.973" cy="196.184" rx="2" ry="2.00001" transform="rotate(-90.7596 272.973 196.184)" fill="#FFFFF3"/>
<ellipse cx="278.974" cy="196.184" rx="2" ry="2.00001" transform="rotate(-90.7596 278.974 196.184)" fill="#FFFFF3"/>
<ellipse cx="284.974" cy="196.184" rx="2" ry="2.00001" transform="rotate(-90.7596 284.974 196.184)" fill="#FFFFF3"/>
<ellipse cx="290.974" cy="196.184" rx="2" ry="2.00001" transform="rotate(-90.7596 290.974 196.184)" fill="#FFFFF3"/>
<ellipse cx="296.974" cy="196.184" rx="2" ry="2.00001" transform="rotate(-90.7596 296.974 196.184)" fill="#FFFFF3"/>
<ellipse cx="302.974" cy="196.184" rx="2" ry="2.00001" transform="rotate(-90.7596 302.974 196.184)" fill="#FFFFF3"/>
<ellipse cx="308.974" cy="196.184" rx="2" ry="2.00001" transform="rotate(-90.7596 308.974 196.184)" fill="#FFFFF3"/>
<ellipse cx="314.974" cy="196.184" rx="2" ry="2.00001" transform="rotate(-90.7596 314.974 196.184)" fill="#FFFFF3"/>
<ellipse cx="320.974" cy="196.184" rx="2" ry="2.00001" transform="rotate(-90.7596 320.974 196.184)" fill="#FFFFF3"/>
<ellipse cx="326.974" cy="196.184" rx="2" ry="2.00001" transform="rotate(-90.7596 326.974 196.184)" fill="#FFFFF3"/>
<ellipse cx="333.026" cy="196.184" rx="2" ry="2.00001" transform="rotate(-90.7596 333.026 196.184)" fill="#FFFFF3"/>
<ellipse cx="339.079" cy="196.184" rx="2" ry="2.00001" transform="rotate(-90.7596 339.079 196.184)" fill="#FFFFF3"/>
<ellipse cx="345.132" cy="196.184" rx="2" ry="2.00001" transform="rotate(-90.7596 345.132 196.184)" fill="#FFFFF3"/>
<ellipse cx="351.185" cy="196.184" rx="2" ry="2.00001" transform="rotate(-90.7596 351.185 196.184)" fill="#FFFFF3"/>
<ellipse cx="243.026" cy="189.132" rx="2" ry="2.00001" transform="rotate(-90.7596 243.026 189.132)" fill="#FFFFF3"/>
<ellipse cx="248.973" cy="189.132" rx="2" ry="2.00001" transform="rotate(-90.7596 248.973 189.132)" fill="#FFFFF3"/>
<ellipse cx="254.973" cy="189.132" rx="2" ry="2.00001" transform="rotate(-90.7596 254.973 189.132)" fill="#FFFFF3"/>
<ellipse cx="260.973" cy="189.132" rx="2" ry="2.00001" transform="rotate(-90.7596 260.973 189.132)" fill="#FFFFF3"/>
<ellipse cx="266.973" cy="189.132" rx="2" ry="2.00001" transform="rotate(-90.7596 266.973 189.132)" fill="#FFFFF3"/>
<ellipse cx="272.973" cy="189.132" rx="2" ry="2.00001" transform="rotate(-90.7596 272.973 189.132)" fill="#FFFFF3"/>
<ellipse cx="278.974" cy="189.132" rx="2" ry="2.00001" transform="rotate(-90.7596 278.974 189.132)" fill="#FFFFF3"/>
<ellipse cx="284.974" cy="189.132" rx="2" ry="2.00001" transform="rotate(-90.7596 284.974 189.132)" fill="#FFFFF3"/>
<ellipse cx="290.974" cy="189.132" rx="2" ry="2.00001" transform="rotate(-90.7596 290.974 189.132)" fill="#FFFFF3"/>
<ellipse cx="296.974" cy="189.132" rx="2" ry="2.00001" transform="rotate(-90.7596 296.974 189.132)" fill="#FFFFF3"/>
<ellipse cx="302.974" cy="189.132" rx="2" ry="2.00001" transform="rotate(-90.7596 302.974 189.132)" fill="#FFFFF3"/>
<ellipse cx="308.974" cy="189.132" rx="2" ry="2.00001" transform="rotate(-90.7596 308.974 189.132)" fill="#FFFFF3"/>
<ellipse cx="314.974" cy="189.132" rx="2" ry="2.00001" transform="rotate(-90.7596 314.974 189.132)" fill="#FFFFF3"/>
<ellipse cx="320.974" cy="189.132" rx="2" ry="2.00001" transform="rotate(-90.7596 320.974 189.132)" fill="#FFFFF3"/>
<ellipse cx="326.974" cy="189.132" rx="2" ry="2.00001" transform="rotate(-90.7596 326.974 189.132)" fill="#FFFFF3"/>
<ellipse cx="333.026" cy="189.132" rx="2" ry="2.00001" transform="rotate(-90.7596 333.026 189.132)" fill="#FFFFF3"/>
<ellipse cx="339.079" cy="189.132" rx="2" ry="2.00001" transform="rotate(-90.7596 339.079 189.132)" fill="#FFFFF3"/>
<ellipse cx="345.132" cy="189.132" rx="2" ry="2.00001" transform="rotate(-90.7596 345.132 189.132)" fill="#FFFFF3"/>
<ellipse cx="351.185" cy="189.132" rx="2" ry="2.00001" transform="rotate(-90.7596 351.185 189.132)" fill="#FFFFF3"/>
<ellipse cx="243.026" cy="182.079" rx="2" ry="2.00001" transform="rotate(-90.7596 243.026 182.079)" fill="#FFFFF3"/>
<ellipse cx="248.973" cy="182.079" rx="2" ry="2.00001" transform="rotate(-90.7596 248.973 182.079)" fill="#FFFFF3"/>
<ellipse cx="254.973" cy="182.079" rx="2" ry="2.00001" transform="rotate(-90.7596 254.973 182.079)" fill="#FFFFF3"/>
<ellipse cx="260.973" cy="182.079" rx="2" ry="2.00001" transform="rotate(-90.7596 260.973 182.079)" fill="#FFFFF3"/>
<ellipse cx="266.973" cy="182.079" rx="2" ry="2.00001" transform="rotate(-90.7596 266.973 182.079)" fill="#FFFFF3"/>
<ellipse cx="272.973" cy="182.079" rx="2" ry="2.00001" transform="rotate(-90.7596 272.973 182.079)" fill="#FFFFF3"/>
<ellipse cx="278.974" cy="182.079" rx="2" ry="2.00001" transform="rotate(-90.7596 278.974 182.079)" fill="#FFFFF3"/>
<ellipse cx="284.974" cy="182.079" rx="2" ry="2.00001" transform="rotate(-90.7596 284.974 182.079)" fill="#FFFFF3"/>
<ellipse cx="290.974" cy="182.079" rx="2" ry="2.00001" transform="rotate(-90.7596 290.974 182.079)" fill="#FFFFF3"/>
<ellipse cx="296.974" cy="182.079" rx="2" ry="2.00001" transform="rotate(-90.7596 296.974 182.079)" fill="#FFFFF3"/>
<ellipse cx="302.974" cy="182.079" rx="2" ry="2.00001" transform="rotate(-90.7596 302.974 182.079)" fill="#FFFFF3"/>
<ellipse cx="308.974" cy="182.079" rx="2" ry="2.00001" transform="rotate(-90.7596 308.974 182.079)" fill="#FFFFF3"/>
<ellipse cx="314.974" cy="182.079" rx="2" ry="2.00001" transform="rotate(-90.7596 314.974 182.079)" fill="#FFFFF3"/>
<ellipse cx="320.974" cy="182.079" rx="2" ry="2.00001" transform="rotate(-90.7596 320.974 182.079)" fill="#FFFFF3"/>
<ellipse cx="326.974" cy="182.079" rx="2" ry="2.00001" transform="rotate(-90.7596 326.974 182.079)" fill="#FFFFF3"/>
<ellipse cx="333.026" cy="182.079" rx="2" ry="2.00001" transform="rotate(-90.7596 333.026 182.079)" fill="#FFFFF3"/>
<ellipse cx="339.079" cy="182.079" rx="2" ry="2.00001" transform="rotate(-90.7596 339.079 182.079)" fill="#FFFFF3"/>
<ellipse cx="345.132" cy="182.079" rx="2" ry="2.00001" transform="rotate(-90.7596 345.132 182.079)" fill="#FFFFF3"/>
<ellipse cx="351.185" cy="182.079" rx="2" ry="2.00001" transform="rotate(-90.7596 351.185 182.079)" fill="#FFFFF3"/>
<ellipse cx="243.026" cy="175.026" rx="2" ry="2.00001" transform="rotate(-90.7596 243.026 175.026)" fill="#FFFFF3"/>
<ellipse cx="248.973" cy="175.026" rx="2" ry="2.00001" transform="rotate(-90.7596 248.973 175.026)" fill="#FFFFF3"/>
<ellipse cx="254.973" cy="175.026" rx="2" ry="2.00001" transform="rotate(-90.7596 254.973 175.026)" fill="#FFFFF3"/>
<ellipse cx="260.973" cy="175.026" rx="2" ry="2.00001" transform="rotate(-90.7596 260.973 175.026)" fill="#FFFFF3"/>
<ellipse cx="266.973" cy="175.026" rx="2" ry="2.00001" transform="rotate(-90.7596 266.973 175.026)" fill="#FFFFF3"/>
<ellipse cx="272.973" cy="175.026" rx="2" ry="2.00001" transform="rotate(-90.7596 272.973 175.026)" fill="#FFFFF3"/>
<ellipse cx="278.974" cy="175.026" rx="2" ry="2.00001" transform="rotate(-90.7596 278.974 175.026)" fill="#FFFFF3"/>
<ellipse cx="284.974" cy="175.026" rx="2" ry="2.00001" transform="rotate(-90.7596 284.974 175.026)" fill="#FFFFF3"/>
<ellipse cx="290.974" cy="175.026" rx="2" ry="2.00001" transform="rotate(-90.7596 290.974 175.026)" fill="#FFFFF3"/>
<ellipse cx="296.974" cy="175.026" rx="2" ry="2.00001" transform="rotate(-90.7596 296.974 175.026)" fill="#FFFFF3"/>
<ellipse cx="302.974" cy="175.026" rx="2" ry="2.00001" transform="rotate(-90.7596 302.974 175.026)" fill="#FFFFF3"/>
<ellipse cx="308.974" cy="175.026" rx="2" ry="2.00001" transform="rotate(-90.7596 308.974 175.026)" fill="#FFFFF3"/>
<ellipse cx="314.974" cy="175.026" rx="2" ry="2.00001" transform="rotate(-90.7596 314.974 175.026)" fill="#FFFFF3"/>
<ellipse cx="320.974" cy="175.026" rx="2" ry="2.00001" transform="rotate(-90.7596 320.974 175.026)" fill="#FFFFF3"/>
<ellipse cx="326.974" cy="175.026" rx="2" ry="2.00001" transform="rotate(-90.7596 326.974 175.026)" fill="#FFFFF3"/>
<ellipse cx="333.026" cy="175.026" rx="2" ry="2.00001" transform="rotate(-90.7596 333.026 175.026)" fill="#FFFFF3"/>
<ellipse cx="339.079" cy="175.026" rx="2" ry="2.00001" transform="rotate(-90.7596 339.079 175.026)" fill="#FFFFF3"/>
<ellipse cx="345.132" cy="175.026" rx="2" ry="2.00001" transform="rotate(-90.7596 345.132 175.026)" fill="#FFFFF3"/>
<ellipse cx="351.185" cy="175.026" rx="2" ry="2.00001" transform="rotate(-90.7596 351.185 175.026)" fill="#FFFFF3"/>
<circle cx="67.1185" cy="182.119" r="9" transform="rotate(-0.759549 67.1185 182.119)" fill="#FFFFF3"/>
<circle cx="91.1185" cy="182.119" r="9" transform="rotate(-0.759549 91.1185 182.119)" fill="#FFFFF3"/>
<circle cx="115.119" cy="182.119" r="9" transform="rotate(-0.759549 115.119 182.119)" fill="#FFFFF3"/>
</svg>
