<svg width="814" height="838" viewBox="0 0 814 838" fill="none" xmlns="http://www.w3.org/2000/svg">
<path d="M677.542 133.578C677.542 115.879 670.382 104.345 655.864 98.9761C668.592 93.2092 674.956 82.8686 674.956 67.5565C674.956 61.7896 673.962 56.6192 672.172 51.8466C670.183 47.074 667.399 43.0969 664.217 39.7163C660.836 36.3357 656.659 33.7505 651.886 31.9608C646.914 30.1711 641.743 29.1768 635.976 29.1768C630.606 29.1768 625.435 29.9722 620.861 31.5631C616.287 33.3528 612.11 35.7391 608.729 38.722C605.149 41.9037 602.365 45.682 600.178 50.2558C598.388 53.6364 597.194 57.4147 596.598 61.5907C596.399 62.585 596.797 63.5793 597.393 64.3747C597.99 65.1702 598.984 65.5679 599.979 65.5679C602.365 65.5679 605.547 65.5679 607.735 65.5679C609.326 65.5679 610.519 64.3747 610.917 62.7838C611.911 56.8181 614.298 52.0455 618.077 48.2672C622.452 44.0911 628.418 41.9037 635.976 41.9037C642.937 41.9037 648.704 44.0912 653.477 48.466C658.25 52.8409 660.637 59.2044 660.637 67.7553C660.637 75.7097 658.648 81.8743 654.67 86.448C650.494 91.0218 644.13 93.4081 635.379 93.4081C633.788 93.4081 632.396 94.8001 632.396 96.3909V102.953C632.396 104.544 633.788 105.936 635.379 105.936C645.124 105.936 652.085 108.322 656.659 113.095C661.035 118.067 663.222 124.828 663.222 133.379C663.222 142.128 660.637 148.89 655.466 153.662C650.096 158.435 643.732 160.821 635.976 160.821C632.595 160.821 629.214 160.423 626.231 159.429C623.049 158.435 620.264 157.043 617.679 155.054C615.093 153.066 613.105 150.48 611.514 147.299C610.32 144.912 609.525 142.128 608.928 138.947C608.729 137.356 607.337 136.163 605.746 136.163C603.558 136.163 600.376 136.163 597.99 136.163C596.995 136.163 596.001 136.56 595.404 137.157C594.808 137.952 594.609 138.748 594.609 139.742C595.206 144.714 596.399 148.89 598.388 152.668C600.575 157.441 603.558 161.418 607.337 164.401C611.116 167.582 615.292 169.969 620.264 171.361C625.236 172.753 630.407 173.548 635.976 173.548C641.743 173.548 647.113 172.753 652.284 170.963C657.256 169.173 661.631 166.787 665.41 163.207C669.189 159.827 671.973 155.651 674.36 150.679C676.547 145.907 677.542 140.14 677.542 133.578Z" fill="#FFFFF3"/>
<path fill-rule="evenodd" clip-rule="evenodd" d="M634.605 9.95808C598.587 9.95808 567.23 30.1196 551.231 59.7928L546.848 57.43L551.231 59.793C544.042 73.1259 539.959 88.3806 539.959 104.595C539.959 156.825 582.37 199.232 634.605 199.232C663.179 199.232 688.81 186.55 706.172 166.497C706.174 166.495 706.175 166.493 706.177 166.491C720.556 149.884 729.251 128.252 729.251 104.595C729.251 52.3651 686.84 9.95808 634.605 9.95808ZM709.836 177.241C690.822 196.927 664.133 209.19 634.605 209.19C576.869 209.19 529.999 162.325 529.999 104.595C529.999 88.7342 533.54 73.6829 539.876 60.2019C498.332 45.4976 453.604 37.4887 407 37.4887C187.848 37.4887 9.95913 214.628 9.95913 432.767C9.95913 650.902 187.848 828.042 407 828.042C626.152 828.042 804.041 650.902 804.041 432.767C804.041 335.371 768.587 246.163 709.836 177.241ZM544.592 51.3103C562.819 20.6112 596.318 0 634.605 0C692.34 0 739.21 46.8655 739.21 104.595C739.21 129.185 730.7 151.812 716.472 169.679C777.259 240.478 814 332.387 814 432.767C814 656.442 631.612 838 407 838C182.388 838 0 656.442 0 432.767C0 209.088 182.388 27.5306 407 27.5306C455.273 27.5306 501.603 35.9181 544.592 51.3103Z" fill="#FFFFF3"/>
<path d="M639.266 678.71C640.866 678.71 643.265 677.899 644.864 675.466C645.664 673.844 646.463 671.412 645.664 669.79C620.075 600.054 461.743 160.558 441.752 107.04C440.952 103.796 437.753 101.364 434.555 101.364H376.18C372.981 101.364 369.783 103.796 368.983 107.04C348.992 160.558 190.66 600.054 165.071 669.79C164.271 671.412 165.071 673.844 165.871 675.466C167.47 677.899 169.069 678.71 171.468 678.71H248.235C251.434 678.71 254.632 676.277 255.432 673.033C263.429 650.329 293.016 562.754 293.016 562.754H517.719C517.719 562.754 547.306 650.329 555.303 673.033C556.102 676.277 559.301 678.71 562.499 678.71H639.266ZM493.729 488.153H318.605L407.366 231.915L493.729 488.153Z" fill="#FFFFF3"/>
</svg>
