<svg width="74" height="74" viewBox="0 0 74 74" fill="none" xmlns="http://www.w3.org/2000/svg">
<path d="M68.9422 34.3708L60.925 32.9182C60.7299 32.8826 60.5163 32.7039 60.4505 32.5205L57.993 26.9346C57.9013 26.7621 57.9188 26.4913 58.032 26.3307L62.7031 19.6975C62.8148 19.5379 62.7929 19.2951 62.6519 19.1578L56.8176 13.4735C56.6767 13.3362 56.4279 13.3138 56.2641 13.4236L49.3363 18.0554C49.1725 18.1652 48.8916 18.1846 48.7135 18.0991L43.1557 15.8825C42.967 15.8217 42.7831 15.616 42.7461 15.4254L41.2025 7.34639C41.1664 7.15585 40.9738 7 40.7748 7H32.523C32.3245 7 32.1318 7.15585 32.0957 7.34639L30.5527 15.4254C30.5156 15.616 30.3322 15.8217 30.143 15.8825L24.5847 18.0991C24.4062 18.1846 24.1253 18.1652 23.9619 18.0554L17.0347 13.4236C16.8703 13.3138 16.6211 13.3362 16.4807 13.4735L10.6458 19.1578C10.5054 19.2951 10.482 19.5379 10.5946 19.6975L15.2663 26.3307C15.3785 26.4913 15.396 26.7621 15.3048 26.9346L12.8468 32.5205C12.7815 32.7039 12.5684 32.8826 12.3723 32.9182L4.35553 34.3708C4.15948 34.4069 4 34.5941 4 34.7879L4.00049 42.8271C4.00049 43.0209 4.16045 43.2096 4.35602 43.2443L12.1762 44.6621C12.3718 44.6968 12.581 44.8778 12.6405 45.0627L15.0819 51.0045C15.1692 51.1789 15.1488 51.4516 15.0356 51.6112L10.5937 57.918C10.4815 58.0776 10.5044 58.3209 10.6449 58.4582L16.4802 64.1425C16.6206 64.2789 16.8698 64.3012 17.0342 64.1924L23.3928 59.9402C23.5567 59.8309 23.8312 59.8224 24.0024 59.9198L26.8067 61.3785C26.9842 61.4669 27.1915 61.3923 27.2675 61.2132L33.0497 47.6014C33.1263 47.4223 33.0497 47.1937 32.88 47.0925L32.1782 46.6739C32.0484 46.597 31.8724 46.4644 31.7344 46.3427C29.2027 44.7633 27.5231 42.0003 27.5231 38.8538C27.5231 33.9436 31.609 29.9632 36.6484 29.9632C41.6878 29.9632 45.7732 33.9436 45.7732 38.8538C45.7732 42.0003 44.0941 44.7633 41.562 46.3427C41.4249 46.4644 41.2484 46.597 41.1191 46.6739L40.4173 47.0925C40.2486 47.1937 40.1715 47.4223 40.2476 47.6014L46.0293 61.2136C46.1053 61.3928 46.3121 61.4669 46.4901 61.379L49.2944 59.9203C49.4661 59.8229 49.7402 59.8309 49.904 59.9407L56.2631 64.1928C56.427 64.3017 56.6767 64.2793 56.8166 64.143L62.6519 58.4587C62.7929 58.3214 62.8158 58.0781 62.7031 57.9184L58.2607 51.6117C58.1485 51.4521 58.1276 51.1793 58.2149 51.005L60.6563 45.0632C60.7163 44.8783 60.924 44.6973 61.1201 44.6626L68.9403 43.2447C69.1354 43.2101 69.2958 43.0214 69.2958 42.8276L69.2968 34.7884C69.2973 34.5941 69.1373 34.4069 68.9422 34.3708ZM67.5406 41.948L60.7997 43.1701C60.289 43.2685 59.9574 43.4766 59.6716 43.717C59.4126 43.9484 59.182 44.2174 59.0196 44.636L56.5952 50.535C56.4406 50.8847 56.4079 51.1793 56.405 51.4492C56.4153 51.875 56.487 52.2845 56.8147 52.7706L60.6353 58.195L56.3523 62.3673L50.8979 58.72C50.4205 58.4121 49.9933 58.3375 49.5787 58.3313C49.229 58.3351 48.8701 58.3917 48.4687 58.6012L47.0525 59.3382L42.3003 48.1497C42.4144 48.0694 42.5198 47.9868 42.6261 47.8989C45.5752 46.0101 47.5294 42.7444 47.5294 39.0434C47.5284 33.1876 42.6588 28.4427 36.6489 28.4418C30.6395 28.4427 25.7693 33.1876 25.7674 39.0434C25.7684 42.7444 27.7221 46.0097 30.6717 47.8984C30.777 47.9858 30.8819 48.068 30.9975 48.1493L26.2458 59.3382L24.83 58.6012C24.4228 58.3888 24.058 58.3347 23.7176 58.3313C23.2982 58.338 22.8744 58.4131 22.3969 58.7219L16.9459 62.3673L12.662 58.195L16.4831 52.7687C16.8079 52.2836 16.8815 51.8764 16.8918 51.4492C16.8879 51.1727 16.8518 50.8776 16.7026 50.5369L14.2743 44.6251C14.1109 44.2088 13.8798 43.9442 13.6237 43.7151C13.3365 43.4757 13.0078 43.269 12.4923 43.1697L5.75669 41.9485L5.7562 36.0476L12.6932 34.7889C13.196 34.6905 13.5184 34.4924 13.8037 34.261C14.0578 34.041 14.2885 33.7873 14.4601 33.3839L14.4611 33.3843L16.9045 27.8298C17.0693 27.4787 17.1156 27.1665 17.1186 26.8624C17.1093 26.4466 17.0386 26.0399 16.7191 25.559L12.6635 19.8016L16.9464 15.6288L22.9685 19.6557C23.4713 19.975 23.8844 20.042 24.3214 20.0515C24.6072 20.0492 24.9095 20.0135 25.2607 19.8667L30.798 17.6587C31.2267 17.4942 31.4969 17.2662 31.728 17.0162C31.9689 16.7378 32.1743 16.4233 32.2772 15.9348L33.6203 8.90062H39.6765L41.0187 15.9281C41.124 16.4256 41.3293 16.7392 41.5698 17.0167C41.8029 17.2686 42.0731 17.4966 42.5056 17.6615L48.0439 19.8705C48.3912 20.0145 48.6867 20.0496 48.9745 20.0534C49.4075 20.0425 49.825 19.9765 50.3273 19.6576L56.3514 15.6293L60.6338 19.8025L56.5835 25.5533C56.2577 26.0271 56.1865 26.4447 56.1768 26.8633C56.1797 27.1603 56.2246 27.4635 56.3782 27.7994L58.8352 33.3853C59.0079 33.7892 59.239 34.0424 59.4936 34.2624C59.7779 34.4929 60.0974 34.691 60.6016 34.7903L67.5406 36.0476V41.948Z" fill="#FFFFF3"/>
</svg>
