<svg width="74" height="74" viewBox="0 0 74 74" fill="none" xmlns="http://www.w3.org/2000/svg">
<path d="M53.4429 50.384C52.6939 48.284 51.6578 46.6529 48.5429 44.7421V44.7418C46.0592 43.2657 44.084 41.0682 42.88 38.4418C42.7781 38.2176 42.7007 37.9829 42.6489 37.7418C42.3552 36.2432 42.6699 34.6891 43.5239 33.4229C43.6661 33.2032 43.8254 32.995 43.9999 32.7999C44.8667 31.8789 46.061 31.3356 47.3249 31.2878C46.1688 30.935 44.9369 30.9132 43.7689 31.2249C42.5555 31.5883 41.5784 32.4929 41.1229 33.6749C41.0311 33.903 40.9541 34.137 40.8919 34.3749C40.8167 34.6488 40.7584 34.927 40.7169 35.2079C40.6132 35.9745 40.6132 36.7513 40.7169 37.5178C40.7447 37.7575 40.5966 37.9824 40.3655 38.0515C40.1343 38.1205 39.887 38.0134 39.779 37.7979C38.5959 35.1168 36.8949 34.8229 36.2229 34.8229H36.1389C36.0037 34.8149 35.8681 34.8149 35.733 34.8229L35.6 34.8999L35.1729 34.9559C34.457 35.1435 33.827 35.5709 33.3878 36.1668C32.8216 36.9639 32.4412 37.8776 32.2749 38.8408C32.2424 38.9994 32.212 39.1651 32.184 39.3378C32.156 39.5105 32.128 39.6645 32.0999 39.7999C31.911 41.7019 31.9509 43.6196 32.2189 45.512C36.0409 51.112 41.5149 54.08 46.4569 54.521C50.2998 54.8639 51.6159 54.15 52.8339 53.2609H52.8341C53.3231 52.8979 53.9288 52.7284 54.5351 52.7849C55.2912 52.8619 55.83 52.9528 56.2712 53.0298L56.8172 53.1208L56.817 51.6998C55.27 51.6998 53.8771 51.6089 53.443 50.3839L53.4429 50.384Z" fill="#FFFFF3"/>
<path d="M45.2529 28.824C44.5169 29.2793 43.8315 29.812 43.209 30.4129L43.5029 30.3149C44.1159 30.1155 44.7553 30.0093 45.3999 30C47.7711 30.1176 50.0427 30.9907 51.8819 32.4919C54.241 34.2629 57.6079 37.8119 60.2819 44.6369C60.8559 46.1139 61.8079 47.073 62.2421 47.1079L62.2418 47.1081C62.2662 47.1195 62.2945 47.1195 62.3188 47.1081C62.4029 46.023 62.8438 37.4831 56.8029 31.5681C54.9059 29.755 50.0409 25.7999 45.2529 28.8239L45.2529 28.824Z" fill="#FFFFF3"/>
<path d="M22.1738 38.323C22.884 37.8374 23.6834 37.4972 24.5258 37.322C25.1793 36.3023 26.1261 35.5043 27.2417 35.0331L26.9968 34.2632C26.8637 33.8291 26.7377 33.3882 26.6187 32.9402V32.94C25.3716 32.6895 24.084 32.7253 22.8528 33.045C21.4544 33.4196 20.1439 34.0679 18.9978 34.9522C17.8514 35.8365 16.8918 36.9394 16.1747 38.197C15.1234 40.0263 14.4453 42.0458 14.1795 44.1388C13.9141 46.232 14.0663 48.357 14.6278 50.391C14.926 51.6351 15.4581 52.8109 16.1957 53.8561C16.6929 54.6602 17.4264 55.291 18.2957 55.6622C18.3303 55.682 18.3732 55.682 18.4078 55.6622C18.4201 55.638 18.4201 55.6093 18.4078 55.5852C18.3169 54.8852 18.1348 53.4011 17.9457 50.7761C17.5957 44.9381 19.1146 40.4091 22.1737 38.3231L22.1738 38.323Z" fill="#FFFFF3"/>
<path d="M29.0687 11.268C26.1847 16.168 25.5687 24.666 27.4377 32.149C27.5356 32.527 27.6407 32.9051 27.7457 33.2831C27.8086 33.5141 27.8717 33.7452 27.9417 33.9831L28.2147 34.8581L29.9296 34.6341L30.6997 34.522L31.6937 34.3959L34.9487 33.976C35.3434 33.8855 35.7486 33.8502 36.1528 33.8709C36.6639 33.8734 37.17 33.9733 37.6437 34.1649C37.9659 34.2966 38.2713 34.4657 38.5539 34.6689C38.9752 34.9724 39.35 35.3354 39.6667 35.7469C39.6667 35.453 39.7228 35.1449 39.7857 34.781H39.7859C39.8121 34.4756 39.8659 34.1735 39.9468 33.878L40.0167 33.626C38.2039 29.104 36.5167 22.426 37.7697 12.717C38.0147 10.8271 37.7697 9.42708 37.0697 8.51697C36.3675 7.75502 35.3831 7.31454 34.3467 7.29903C32.5127 7.14499 30.6997 8.47503 29.0687 11.268L29.0687 11.268Z" fill="#FFFFF3"/>
<path d="M31.2878 45.897C31.2388 45.498 31.1969 45.1129 31.1547 44.7349C31.1128 44.3569 31.0848 43.9929 31.0638 43.6359V43.6361C30.959 42.2359 30.9966 40.8286 31.1759 39.4361C31.1759 39.2682 31.2249 39.1 31.253 38.9321C31.281 38.7641 31.3158 38.596 31.3509 38.4351C31.5578 37.3919 31.9876 36.4057 32.6111 35.544C32.6881 35.4389 32.779 35.3339 32.8701 35.2291L31.8481 35.3621L30.7772 35.5021L28.5231 35.7892L28.1731 35.8311H28.0262L27.6832 35.8801L27.5433 35.943L27.1999 36.1321C26.6934 36.4028 26.2386 36.7605 25.856 37.1889C25.5682 37.512 25.315 37.8638 25.0999 38.2389C24.8071 38.7869 24.5724 39.3641 24.3999 39.9611C22.4398 45.9391 24.6169 56.0261 27.8999 61.0451C30.231 64.6431 32.3449 66.1201 35.3199 66.1971V66.1969C35.5578 64 35.3336 61.7779 34.6621 59.6729C33.1334 55.1894 32.0043 50.5793 31.2879 45.8969L31.2878 45.897Z" fill="#FFFFF3"/>
</svg>
