<svg width="74" height="74" viewBox="0 0 74 74" fill="none" xmlns="http://www.w3.org/2000/svg">
<path d="M29.4644 41.3344L31.0554 41.3344L35.6402 45.143C35.7081 45.1992 35.7906 45.2349 35.878 45.246C35.9654 45.2571 36.0542 45.2431 36.1339 45.2056C36.2137 45.1682 36.2812 45.1088 36.3285 45.0345C36.3757 44.9601 36.4009 44.8739 36.4011 44.7857L36.4011 37.5887C36.4621 37.528 36.5106 37.4557 36.5437 37.3761C36.5767 37.2966 36.5938 37.2113 36.5938 37.1251C36.5938 37.0389 36.5767 36.9536 36.5437 36.8741C36.5106 36.7945 36.4621 36.7222 36.4011 36.6615L36.4011 29.4643C36.4011 29.3762 36.376 29.2898 36.3287 29.2155C36.2814 29.1411 36.2138 29.0818 36.134 29.0444C36.0543 29.0067 35.9655 28.9926 35.878 29.0037C35.7905 29.0148 35.708 29.0506 35.6402 29.107L31.0554 32.9156L29.4644 32.9156C29.4034 32.9156 29.343 32.9276 29.2867 32.9509C29.2303 32.9742 29.1791 33.0084 29.136 33.0515C29.0929 33.0946 29.0587 33.1458 29.0354 33.2022C29.0121 33.2585 29.0001 33.3189 29.0001 33.3799L29.0001 40.8701C29.0001 40.9311 29.0121 40.9915 29.0354 41.0479C29.0587 41.1042 29.0929 41.1554 29.136 41.1985C29.1791 41.2416 29.2303 41.2758 29.2867 41.2992C29.343 41.3225 29.4034 41.3345 29.4644 41.3344Z" fill="#FFFFF3"/>
<path d="M37.9926 40.6708C37.8853 40.7314 37.8065 40.8321 37.7735 40.9508C37.7405 41.0695 37.7561 41.1965 37.8167 41.3037C37.8773 41.411 37.978 41.4898 38.0967 41.5228C38.2154 41.5558 38.3423 41.5402 38.4496 41.4796C39.2174 41.0457 39.8529 40.4113 40.2882 39.6443C40.7332 38.8808 40.968 38.013 40.9687 37.1293C40.9695 36.2456 40.7361 35.3775 40.2923 34.6132C39.8566 33.8432 39.2196 33.2062 38.4496 32.7706C38.3424 32.71 38.2154 32.6945 38.0967 32.7275C37.978 32.7605 37.8773 32.8393 37.8167 32.9465C37.7561 33.0538 37.7406 33.1807 37.7735 33.2994C37.8065 33.4181 37.8853 33.5189 37.9926 33.5795C38.6181 33.9335 39.1353 34.4514 39.4884 35.0775C39.8505 35.7006 40.0409 36.4086 40.0402 37.1293C40.0395 37.85 39.8476 38.5576 39.4843 39.18C39.1316 39.8031 38.6159 40.3184 37.9926 40.6708Z" fill="#FFFFF3"/>
<path d="M44 32.4686C43.1816 31.0555 42.0075 29.8812 40.5944 29.0626C40.4879 29.0009 40.3612 28.9841 40.2422 29.0158C40.1233 29.0475 40.0218 29.1252 39.9601 29.2317C39.8984 29.3383 39.8816 29.465 39.9133 29.5839C39.945 29.7029 40.0227 29.8044 40.1292 29.8661C41.4034 30.6017 42.4615 31.6599 43.1972 32.9341C43.9329 34.2083 44.3202 35.6537 44.3202 37.1251C44.3202 38.5964 43.9329 40.0418 43.1972 41.316C42.4615 42.5903 41.4034 43.6484 40.1292 44.3841C40.0227 44.4458 39.945 44.5473 39.9133 44.6662C39.8816 44.7852 39.8984 44.9119 39.9601 45.0184C40.0218 45.1249 40.1233 45.2026 40.2422 45.2343C40.3612 45.266 40.4879 45.2492 40.5944 45.1875C41.6537 44.5765 42.5821 43.7626 43.3266 42.7925C44.0711 41.8225 44.6171 40.7151 44.9334 39.5339C45.2496 38.3527 45.33 37.1207 45.1698 35.9083C45.0097 34.696 44.6121 33.5272 44 32.4686L44 32.4686Z" fill="#FFFFF3"/>
<rect x="10.7071" y="36.8701" width="37" height="37" transform="rotate(-45 10.7071 36.8701)" stroke="#FFFFF3"/>
<circle cx="11" cy="37" r="6" fill="#FFFFF3"/>
<circle cx="37" cy="63" r="6" fill="#FFFFF3"/>
<circle cx="63" cy="37" r="6" fill="#FFFFF3"/>
<circle cx="37" cy="11" r="6" fill="#FFFFF3"/>
</svg>
