<svg width="74" height="74" viewBox="0 0 74 74" fill="none" xmlns="http://www.w3.org/2000/svg">
<path d="M40.4909 5.58177C40.4909 7.50975 38.9278 9.07281 36.9998 9.07281C35.0719 9.07281 33.5088 7.50975 33.5088 5.58177C33.5088 3.65379 35.0719 2.09097 36.9998 2.09097C38.9278 2.09097 40.4909 3.65379 40.4909 5.58177Z" fill="#FFFFF3"/>
<path d="M40.4909 68.416C40.4909 70.344 38.9278 71.9068 36.9998 71.9068C35.0719 71.9068 33.5088 70.344 33.5088 68.416C33.5088 66.488 35.0719 64.925 36.9998 64.925C38.9278 64.925 40.4909 66.488 40.4909 68.416Z" fill="#FFFFF3"/>
<path d="M62.746 14.7454C62.746 16.6734 61.1832 18.2364 59.2552 18.2364C57.3272 18.2364 55.7642 16.6734 55.7642 14.7454C55.7642 12.8174 57.3272 11.2546 59.2552 11.2546C61.1832 11.2546 62.746 12.8174 62.746 14.7454Z" fill="#FFFFF3"/>
<path d="M18.2362 59.2546C18.2362 61.1826 16.6732 62.7454 14.7452 62.7454C12.8172 62.7454 11.2544 61.1826 11.2544 59.2546C11.2544 57.3266 12.8172 55.7635 14.7452 55.7635C16.6732 55.7635 18.2362 57.3266 18.2362 59.2546Z" fill="#FFFFF3"/>
<path d="M15.7271 45.727C15.836 45.836 15.836 45.836 15.836 45.9452V53.6906C16.9271 53.9088 18.0178 54.4542 18.7814 55.2178C19.6543 56.0906 20.1997 57.0724 20.3086 58.1632H28.054H28.163C28.163 58.1632 28.163 58.2722 28.272 58.2722C28.381 58.3812 28.5992 58.5993 33.7266 63.7268C34.5994 63.0722 35.7994 62.745 36.9994 62.745C38.1994 62.745 39.2904 63.0722 40.2722 63.7268L45.7268 58.2722C45.7268 58.2722 45.7268 58.1632 45.8358 58.1632H45.9448H53.6902C53.9084 57.0721 54.4538 55.9814 55.2174 55.2178C56.0902 54.345 57.072 53.7996 58.1628 53.6906V45.9452V45.8362C58.1628 45.8362 58.2718 45.8362 58.2718 45.7272L63.7264 40.2726C63.0718 39.3998 62.7446 38.1998 62.7446 36.9998C62.7446 35.7998 63.0718 34.7088 63.7264 33.727L58.2718 28.2724C58.2718 28.2724 58.1628 28.2724 58.1628 28.1634V28.0544V20.309C57.0717 20.0908 55.981 19.5454 55.2174 18.7818C54.3446 17.909 53.7992 16.9272 53.6902 15.8364H45.9448H45.8358C45.8358 15.8364 45.8358 15.7275 45.7268 15.7275C45.6178 15.6185 45.3996 15.4003 40.2722 10.2729C39.3994 10.9275 38.1994 11.2546 36.9994 11.2546C35.7994 11.2546 34.7084 10.9275 33.7266 10.2729L28.272 15.7275C28.272 15.7275 28.272 15.8364 28.163 15.8364H28.054H20.3086C20.0904 16.9275 19.545 18.0182 18.7814 18.7818C17.9086 19.6547 16.9268 20.2001 15.836 20.309V28.0544V28.1634C15.836 28.1634 15.7271 28.1634 15.7271 28.2724L10.2725 33.727C10.9271 34.5998 11.2542 35.7998 11.2542 36.9998C11.2542 38.1998 10.9271 39.2909 10.2725 40.2726L15.7271 45.727ZM29.8001 56.7454C29.5819 56.5272 29.2547 56.4182 28.9272 56.4182C28.709 56.2 28.3819 55.9818 28.0544 55.9818H23.4726C23.5816 55.8728 23.6908 55.8728 32.9634 46.6002C33.0724 55.8732 33.0724 58.0548 33.0724 59.9094L29.8001 56.7454ZM45.8363 56.091C45.5091 56.091 45.1817 56.3092 44.9634 56.5274C44.6363 56.5274 44.3088 56.6364 44.0906 56.8546L40.8178 60.1275C40.8178 59.9092 40.8178 59.9093 40.9268 46.8183C47.5814 53.3637 49.1084 54.7821 50.4176 56.1999L45.836 56.1996L45.8363 56.091ZM56.7455 44.2002C56.5273 44.4184 56.4183 44.7456 56.4183 45.0731C56.2001 45.2913 55.9819 45.6184 55.9819 45.9459V50.5277C55.8729 50.4187 55.8729 50.3095 46.6003 41.0369C55.8733 40.9279 58.0549 40.9279 59.9095 40.9279L56.7455 44.2002ZM56.0911 23.4732V28.055C56.0911 28.3822 56.3093 28.7096 56.5275 28.9278C56.5275 29.255 56.6365 29.5824 56.8547 29.8007L60.1275 33.0735C59.9093 33.0735 59.9093 33.0735 46.8183 32.9645C53.2545 26.4185 54.6729 24.8915 56.0907 23.4731L56.0911 23.4732ZM44.2003 17.2548C44.4185 17.473 44.7457 17.582 45.0731 17.582C45.2913 17.8002 45.6185 18.0184 45.9459 18.0184H50.5277C50.4187 18.1274 50.3095 18.1274 41.0369 27.4C40.9279 18.127 40.9279 15.9454 40.9279 14.0908L44.2003 17.2548ZM33.6187 28.9272C34.7097 29.6909 36.2369 29.0362 36.2369 27.6183L36.3459 21.7272C36.3459 21.4001 36.6731 21.0726 37.0005 21.0726C37.3277 21.0726 37.6551 21.3998 37.6551 21.7272L37.7641 27.6183C37.7641 28.9272 39.2913 29.6911 40.3823 28.9272C40.6005 30.3455 42.1277 30.6726 43.1095 29.909L47.3641 25.8726C47.5823 25.6544 48.0187 25.6544 48.2369 25.8726C48.4551 26.0908 48.4551 26.5272 48.2369 26.7455L44.2005 31.0001C43.3277 31.8729 43.6551 33.509 45.0733 33.7272C44.3097 34.8183 44.9644 36.3455 46.3823 36.3455L52.2733 36.4544C52.6005 36.4544 52.9279 36.7816 52.9279 37.109C52.9279 37.4362 52.6008 37.7636 52.2733 37.7636L46.3823 37.8726C45.0733 37.8726 44.3095 39.3998 45.0733 40.4908C43.6551 40.709 43.2187 42.2362 44.0916 43.218L48.1279 47.4726C48.3461 47.6908 48.3461 48.1272 48.1279 48.3454C47.9097 48.5636 47.4733 48.5636 47.2551 48.3454L43.0005 44.3091C42.1277 43.4362 40.4916 43.7637 40.2733 45.1819C39.1823 44.4183 37.6551 45.0729 37.6551 46.4908V52.2729C37.6551 52.6001 37.3279 52.9275 37.0005 52.9275C36.6733 52.9275 36.3459 52.6003 36.3459 52.2729L36.2369 46.3818C36.2369 45.0729 34.7098 44.309 33.6187 45.0729C33.4005 43.6546 31.8733 43.2183 30.8915 44.0911L26.6369 48.1275C26.4187 48.3457 25.9823 48.3457 25.7641 48.1275C25.5459 47.9093 25.5459 47.4729 25.7641 47.2547L29.8005 43C30.6733 42.1272 30.3459 40.4911 28.9277 40.2729C29.6913 39.1818 29.0367 37.6546 27.6187 37.6546H21.7277C21.4005 37.6546 21.0731 37.3275 21.0731 37C21.0731 36.6729 21.4003 36.3454 21.7277 36.3454L27.6187 36.2365C28.9277 36.2365 29.6915 34.7093 28.9277 33.6182C30.3459 33.4 30.6731 31.8728 29.9095 30.8911L25.8731 26.6365C25.6549 26.4183 25.6549 25.9819 25.8731 25.7636C26.0913 25.5454 26.5277 25.5454 26.7459 25.7636L31.0005 29.8C31.7641 30.6728 33.4005 30.3454 33.6187 28.9272L33.6187 28.9272ZM28.1641 17.9088C28.4913 17.9088 28.8187 17.6906 29.0369 17.4724C29.3641 17.4724 29.6915 17.3634 29.9097 17.1452L33.1826 13.8724C33.1826 14.0906 33.1826 14.0906 33.0736 27.1816C26.419 20.6362 24.892 19.2178 23.5828 17.8L28.1643 17.8003L28.1641 17.9088ZM17.2549 29.7996C17.4731 29.5814 17.5821 29.2542 17.5821 28.9268C17.8003 28.7086 18.0185 28.3814 18.0185 28.054V23.4722C18.1275 23.5812 18.1275 23.6904 27.4001 32.963C18.1271 33.072 15.9455 33.072 14.0909 33.072L17.2549 29.7996ZM27.2911 41.0358C20.7457 47.6904 19.3273 49.2174 17.9095 50.5266V45.9449C17.9095 45.6177 17.6913 45.2903 17.4731 45.072C17.4731 44.7449 17.3641 44.4174 17.1459 44.1992L13.8731 40.9264C14.2003 40.9264 14.2003 40.9264 27.2915 41.0356L27.2911 41.0358Z" fill="#FFFFF3"/>
<path d="M71.9081 37C71.9081 38.928 70.3453 40.491 68.4173 40.491C66.4893 40.491 64.9263 38.928 64.9263 37C64.9263 35.072 66.4893 33.509 68.4173 33.509C70.3453 33.509 71.9081 35.072 71.9081 37Z" fill="#FFFFF3"/>
<path d="M9.07315 37C9.07315 38.928 7.51009 40.491 5.58211 40.491C3.65413 40.491 2.09131 38.928 2.09131 37C2.09131 35.072 3.65413 33.509 5.58211 33.509C7.51009 33.509 9.07315 35.072 9.07315 37Z" fill="#FFFFF3"/>
<path d="M62.746 59.2546C62.746 61.1826 61.1832 62.7454 59.2552 62.7454C57.3272 62.7454 55.7642 61.1826 55.7642 59.2546C55.7642 57.3266 57.3272 55.7635 59.2552 55.7635C61.1832 55.7635 62.746 57.3266 62.746 59.2546Z" fill="#FFFFF3"/>
<path d="M18.2362 14.7454C18.2362 16.6734 16.6732 18.2364 14.7452 18.2364C12.8172 18.2364 11.2544 16.6734 11.2544 14.7454C11.2544 12.8174 12.8172 11.2546 14.7452 11.2546C16.6732 11.2546 18.2362 12.8174 18.2362 14.7454Z" fill="#FFFFF3"/>
</svg>
