<svg width="74" height="74" viewBox="0 0 74 74" fill="none" xmlns="http://www.w3.org/2000/svg">
<path d="M47.6677 63.595L46.7583 63.9555L40.7378 48.845L41.6511 48.4845C44.3411 47.4103 46.5728 45.4323 47.9626 42.891C49.3524 40.3496 49.8134 37.4035 49.2665 34.559C48.7194 31.7146 47.1987 29.1495 44.9655 27.305C42.7323 25.4602 39.926 24.4513 37.03 24.4513C34.1333 24.4513 31.3275 25.4603 29.094 27.305C26.8608 29.1497 25.3401 31.7147 24.793 34.559C24.2461 37.4035 24.707 40.3495 26.0969 42.891C27.4867 45.4322 29.7184 47.4101 32.4084 48.4845L33.3178 48.8489L27.2463 63.9244L26.3369 63.5639C19.8754 60.9432 14.5889 56.0599 11.4649 49.8259C8.34101 43.5919 7.59317 36.4344 9.36157 29.6894C11.1297 22.9449 15.2926 17.0744 21.0731 13.1749C26.8536 9.27531 33.8556 7.61341 40.7721 8.49971C47.6881 9.38606 54.0451 12.7599 58.6556 17.9907C63.2659 23.2217 65.8141 29.9522 65.8246 36.9247C65.842 42.6827 64.1172 48.3117 60.8767 53.0717C57.6363 57.8315 53.0317 61.5002 47.6682 63.5947L47.6677 63.595ZM37.0842 10.205C30.9517 10.1859 24.9997 12.2774 20.2272 16.1285C15.4545 19.9793 12.1522 25.355 10.8747 31.353C9.59712 37.351 10.4221 43.6055 13.2112 49.0675C16.0002 54.5295 20.5837 58.865 26.1917 61.3465L30.7973 49.889C27.8516 48.4667 25.4763 46.086 24.0608 43.137C22.6454 40.1881 22.2735 36.846 23.0065 33.6575C23.7395 30.4696 25.5337 27.6255 28.095 25.5905C30.6564 23.5559 33.8325 22.4516 37.104 22.4588C40.3751 22.4661 43.547 23.5842 46.099 25.6301C48.6514 27.676 50.433 30.5282 51.152 33.7196C51.871 36.9108 51.4846 40.2516 50.0561 43.1941C48.6276 46.1366 46.2419 48.5071 43.2901 49.9161L47.8528 61.3971C53.4823 58.9377 58.0918 54.6131 60.9053 49.1521C63.7188 43.6911 64.5641 37.4271 63.2987 31.4156C62.0334 25.4041 58.7348 20.0126 53.9587 16.1491C49.1825 12.2856 43.2207 10.1861 37.0777 10.2051L37.0842 10.205Z" fill="#FFFFF3"/>
</svg>
