<svg width="74" height="74" viewBox="0 0 74 74" fill="none" xmlns="http://www.w3.org/2000/svg">
<path fill-rule="evenodd" clip-rule="evenodd" d="M6.27979 28.4C6.27979 26.48 8.19979 26.48 19.7198 26.48H27.3998C35.0787 26.48 33.1598 28.4 36.9998 28.4C40.8386 28.4 38.9198 26.48 46.5998 26.48H54.2798C65.7987 26.48 67.7198 26.48 67.7198 28.4V30.32C67.7198 32.24 66.3471 30.8768 65.7986 34.16C63.8798 45.68 61.9598 47.6 52.3586 47.6H50.4398C50.4398 47.6 42.7598 47.6 40.8387 41.84C38.3369 34.3307 39.7431 34.16 37 34.16C34.2568 34.16 35.6631 34.3308 33.16 41.84C31.24 47.6 23.5589 47.6 23.5589 47.6H21.6401C12.039 47.6 10.1201 45.68 8.20011 34.16C7.6528 30.8768 6.28011 32.24 6.28011 30.32L6.27979 28.4ZM42.7598 31.28C42.7598 31.28 42.7598 39.92 48.5198 43.76C48.9563 44.0602 49.5533 43.9494 49.8548 43.5142C50.155 43.0771 50.0448 42.4794 49.6089 42.1792C47.4789 40.7129 46.1517 38.4461 45.3945 36.0181C45.0675 34.9679 44.5971 32.6152 44.6644 31.4446C44.6739 31.3929 44.6798 31.3364 44.6798 31.2802C44.6798 30.7496 44.2498 30.3202 43.7198 30.3202C43.1892 30.3202 42.7598 30.7496 42.7598 31.2802L42.7598 31.28ZM18.8894 42.1792C16.7594 40.713 15.4321 38.4461 14.675 36.0181C14.3479 34.9679 13.8775 32.6152 13.9448 31.4446C13.9542 31.3929 13.96 31.3365 13.96 31.2802C13.96 30.7496 13.53 30.3202 13 30.3202C12.4694 30.3202 12.0388 30.7496 12.0388 31.2802C12.0388 31.2802 12.0388 39.9202 17.7988 43.7602C18.2365 44.0604 18.8336 43.9496 19.1351 43.5144C19.4353 43.0779 19.3253 42.4796 18.8894 42.1794L18.8894 42.1792Z" fill="#FFFFF3"/>
</svg>
