<svg width="400" height="400" fill="none" xmlns="http://www.w3.org/2000/svg"><path d="M0 6a6 6 0 0 1 6-6h388a6 6 0 0 1 6 6v388a6 6 0 0 1-6 6H6a6 6 0 0 1-6-6V6Z" fill="#292F36"/><path fill-rule="evenodd" clip-rule="evenodd" d="M317 30H83v340h234V30ZM77 24v352h246V24H77Z" fill="#FFFFF3"/><circle cx="114.092" cy="58.091" r="7" transform="rotate(-.76 114.092 58.091)" fill="#FFFFF3"/><circle cx="100.026" cy="76.026" transform="rotate(-.76 100.026 76.026)" fill="#FFFFF3" r="2"/><circle cx="100.026" cy="81.973" transform="rotate(-.76 100.026 81.973)" fill="#FFFFF3" r="2"/><circle cx="100.026" cy="87.973" transform="rotate(-.76 100.026 87.973)" fill="#FFFFF3" r="2"/><circle cx="100.026" cy="93.973" transform="rotate(-.76 100.026 93.973)" fill="#FFFFF3" r="2"/><circle cx="100.026" cy="99.973" transform="rotate(-.76 100.026 99.973)" fill="#FFFFF3" r="2"/><circle cx="100.026" cy="105.973" transform="rotate(-.76 100.026 105.973)" fill="#FFFFF3" r="2"/><circle cx="100.026" cy="111.973" transform="rotate(-.76 100.026 111.973)" fill="#FFFFF3" r="2"/><circle cx="100.026" cy="117.973" transform="rotate(-.76 100.026 117.973)" fill="#FFFFF3" r="2"/><circle cx="100.026" cy="123.974" transform="rotate(-.76 100.026 123.974)" fill="#FFFFF3" r="2"/><circle cx="100.026" cy="129.974" transform="rotate(-.76 100.026 129.974)" fill="#FFFFF3" r="2"/><circle cx="100.026" cy="135.974" transform="rotate(-.76 100.026 135.974)" fill="#FFFFF3" r="2"/><circle cx="100.026" cy="141.974" transform="rotate(-.76 100.026 141.974)" fill="#FFFFF3" r="2"/><circle cx="100.026" cy="147.974" transform="rotate(-.76 100.026 147.974)" fill="#FFFFF3" r="2"/><circle cx="100.026" cy="153.974" transform="rotate(-.76 100.026 153.974)" fill="#FFFFF3" r="2"/><circle cx="100.026" cy="159.974" transform="rotate(-.76 100.026 159.974)" fill="#FFFFF3" r="2"/><circle cx="114.119" cy="83.103" r="9" transform="rotate(-.76 114.119 83.103)" fill="#FFFFF3"/><circle cx="114.119" cy="118.119" r="9" transform="rotate(-.76 114.119 118.119)" fill="#FFFFF3"/><circle cx="114.119" cy="153.135" r="9" transform="rotate(-.76 114.119 153.135)" fill="#FFFFF3"/><rect x="100" y="170" width="23" height="9" rx="2" fill="#FFFFF3"/><rect x="110" y="188" width="3" height="87" rx="1" fill="#FFFFF3"/><rect x="101" y="205" width="21" height="6" rx="1" fill="#FFFFF3"/><rect x="100" y="283" width="23" height="16" rx="2" fill="#FFFFF3"/><rect x="100" y="310" width="23" height="16" rx="2" fill="#FFFFF3"/><circle cx="261.026" cy="53.026" transform="rotate(-.76 261.026 53.026)" fill="#FFFFF3" r="2"/><circle cx="261.026" cy="58.973" transform="rotate(-.76 261.026 58.973)" fill="#FFFFF3" r="2"/><circle cx="261.026" cy="64.973" transform="rotate(-.76 261.026 64.973)" fill="#FFFFF3" r="2"/><circle cx="261.026" cy="70.973" transform="rotate(-.76 261.026 70.973)" fill="#FFFFF3" r="2"/><circle cx="261.026" cy="76.973" transform="rotate(-.76 261.026 76.973)" fill="#FFFFF3" r="2"/><circle cx="261.026" cy="82.973" transform="rotate(-.76 261.026 82.973)" fill="#FFFFF3" r="2"/><circle cx="261.026" cy="88.973" transform="rotate(-.76 261.026 88.973)" fill="#FFFFF3" r="2"/><circle cx="261.026" cy="94.973" transform="rotate(-.76 261.026 94.973)" fill="#FFFFF3" r="2"/><circle cx="261.026" cy="100.974" transform="rotate(-.76 261.026 100.974)" fill="#FFFFF3" r="2"/><circle cx="261.026" cy="106.974" transform="rotate(-.76 261.026 106.974)" fill="#FFFFF3" r="2"/><circle cx="261.026" cy="112.974" transform="rotate(-.76 261.026 112.974)" fill="#FFFFF3" r="2"/><circle cx="261.026" cy="118.974" transform="rotate(-.76 261.026 118.974)" fill="#FFFFF3" r="2"/><circle cx="261.026" cy="124.974" transform="rotate(-.76 261.026 124.974)" fill="#FFFFF3" r="2"/><circle cx="261.026" cy="130.974" transform="rotate(-.76 261.026 130.974)" fill="#FFFFF3" r="2"/><circle cx="261.026" cy="136.974" transform="rotate(-.76 261.026 136.974)" fill="#FFFFF3" r="2"/><circle cx="261.026" cy="143.026" transform="rotate(-.76 261.026 143.026)" fill="#FFFFF3" r="2"/><circle cx="261.026" cy="149.079" transform="rotate(-.76 261.026 149.079)" fill="#FFFFF3" r="2"/><circle cx="261.026" cy="155.132" transform="rotate(-.76 261.026 155.132)" fill="#FFFFF3" r="2"/><circle cx="261.026" cy="161.185" transform="rotate(-.76 261.026 161.185)" fill="#FFFFF3" r="2"/><circle cx="267.026" cy="53.026" transform="rotate(-.76 267.026 53.026)" fill="#FFFFF3" r="2"/><circle cx="267.026" cy="58.973" transform="rotate(-.76 267.026 58.973)" fill="#FFFFF3" r="2"/><circle cx="267.026" cy="64.973" transform="rotate(-.76 267.026 64.973)" fill="#FFFFF3" r="2"/><circle cx="267.026" cy="70.973" transform="rotate(-.76 267.026 70.973)" fill="#FFFFF3" r="2"/><circle cx="267.026" cy="76.973" transform="rotate(-.76 267.026 76.973)" fill="#FFFFF3" r="2"/><circle cx="267.026" cy="82.973" transform="rotate(-.76 267.026 82.973)" fill="#FFFFF3" r="2"/><circle cx="267.026" cy="88.973" transform="rotate(-.76 267.026 88.973)" fill="#FFFFF3" r="2"/><circle cx="267.026" cy="94.973" transform="rotate(-.76 267.026 94.973)" fill="#FFFFF3" r="2"/><circle cx="267.026" cy="100.974" transform="rotate(-.76 267.026 100.974)" fill="#FFFFF3" r="2"/><circle cx="267.026" cy="106.974" transform="rotate(-.76 267.026 106.974)" fill="#FFFFF3" r="2"/><circle cx="267.026" cy="112.974" transform="rotate(-.76 267.026 112.974)" fill="#FFFFF3" r="2"/><circle cx="267.026" cy="118.974" transform="rotate(-.76 267.026 118.974)" fill="#FFFFF3" r="2"/><circle cx="267.026" cy="124.974" transform="rotate(-.76 267.026 124.974)" fill="#FFFFF3" r="2"/><circle cx="267.026" cy="130.974" transform="rotate(-.76 267.026 130.974)" fill="#FFFFF3" r="2"/><circle cx="267.026" cy="136.974" transform="rotate(-.76 267.026 136.974)" fill="#FFFFF3" r="2"/><circle cx="267.026" cy="143.026" transform="rotate(-.76 267.026 143.026)" fill="#FFFFF3" r="2"/><circle cx="267.026" cy="149.079" transform="rotate(-.76 267.026 149.079)" fill="#FFFFF3" r="2"/><circle cx="267.026" cy="155.132" transform="rotate(-.76 267.026 155.132)" fill="#FFFFF3" r="2"/><circle cx="267.026" cy="161.185" transform="rotate(-.76 267.026 161.185)" fill="#FFFFF3" r="2"/><circle cx="273.026" cy="53.026" transform="rotate(-.76 273.026 53.026)" fill="#FFFFF3" r="2"/><circle cx="273.026" cy="58.973" transform="rotate(-.76 273.026 58.973)" fill="#FFFFF3" r="2"/><circle cx="273.026" cy="64.973" transform="rotate(-.76 273.026 64.973)" fill="#FFFFF3" r="2"/><circle cx="273.026" cy="70.973" transform="rotate(-.76 273.026 70.973)" fill="#FFFFF3" r="2"/><circle cx="273.026" cy="76.973" transform="rotate(-.76 273.026 76.973)" fill="#FFFFF3" r="2"/><circle cx="273.026" cy="82.973" transform="rotate(-.76 273.026 82.973)" fill="#FFFFF3" r="2"/><circle cx="273.026" cy="88.973" transform="rotate(-.76 273.026 88.973)" fill="#FFFFF3" r="2"/><circle cx="273.026" cy="94.973" transform="rotate(-.76 273.026 94.973)" fill="#FFFFF3" r="2"/><circle cx="273.026" cy="100.974" transform="rotate(-.76 273.026 100.974)" fill="#FFFFF3" r="2"/><circle cx="273.026" cy="106.974" transform="rotate(-.76 273.026 106.974)" fill="#FFFFF3" r="2"/><circle cx="273.026" cy="112.974" transform="rotate(-.76 273.026 112.974)" fill="#FFFFF3" r="2"/><circle cx="273.026" cy="118.974" transform="rotate(-.76 273.026 118.974)" fill="#FFFFF3" r="2"/><circle cx="273.026" cy="124.974" transform="rotate(-.76 273.026 124.974)" fill="#FFFFF3" r="2"/><circle cx="273.026" cy="130.974" transform="rotate(-.76 273.026 130.974)" fill="#FFFFF3" r="2"/><circle cx="273.026" cy="136.974" transform="rotate(-.76 273.026 136.974)" fill="#FFFFF3" r="2"/><circle cx="273.026" cy="143.026" transform="rotate(-.76 273.026 143.026)" fill="#FFFFF3" r="2"/><circle cx="273.026" cy="149.079" transform="rotate(-.76 273.026 149.079)" fill="#FFFFF3" r="2"/><circle cx="273.026" cy="155.132" transform="rotate(-.76 273.026 155.132)" fill="#FFFFF3" r="2"/><circle cx="273.026" cy="161.185" transform="rotate(-.76 273.026 161.185)" fill="#FFFFF3" r="2"/><circle cx="279.026" cy="53.026" transform="rotate(-.76 279.026 53.026)" fill="#FFFFF3" r="2"/><circle cx="279.026" cy="58.973" transform="rotate(-.76 279.026 58.973)" fill="#FFFFF3" r="2"/><circle cx="279.026" cy="64.973" transform="rotate(-.76 279.026 64.973)" fill="#FFFFF3" r="2"/><circle cx="279.026" cy="70.973" transform="rotate(-.76 279.026 70.973)" fill="#FFFFF3" r="2"/><circle cx="279.026" cy="76.973" transform="rotate(-.76 279.026 76.973)" fill="#FFFFF3" r="2"/><circle cx="279.026" cy="82.973" transform="rotate(-.76 279.026 82.973)" fill="#FFFFF3" r="2"/><circle cx="279.026" cy="88.973" transform="rotate(-.76 279.026 88.973)" fill="#FFFFF3" r="2"/><circle cx="279.026" cy="94.973" transform="rotate(-.76 279.026 94.973)" fill="#FFFFF3" r="2"/><circle cx="279.026" cy="100.974" transform="rotate(-.76 279.026 100.974)" fill="#FFFFF3" r="2"/><circle cx="279.026" cy="106.974" transform="rotate(-.76 279.026 106.974)" fill="#FFFFF3" r="2"/><circle cx="279.026" cy="112.974" transform="rotate(-.76 279.026 112.974)" fill="#FFFFF3" r="2"/><circle cx="279.026" cy="118.974" transform="rotate(-.76 279.026 118.974)" fill="#FFFFF3" r="2"/><circle cx="279.026" cy="124.974" transform="rotate(-.76 279.026 124.974)" fill="#FFFFF3" r="2"/><circle cx="279.026" cy="130.974" transform="rotate(-.76 279.026 130.974)" fill="#FFFFF3" r="2"/><circle cx="279.026" cy="136.974" transform="rotate(-.76 279.026 136.974)" fill="#FFFFF3" r="2"/><circle cx="279.026" cy="143.026" transform="rotate(-.76 279.026 143.026)" fill="#FFFFF3" r="2"/><circle cx="279.026" cy="149.079" transform="rotate(-.76 279.026 149.079)" fill="#FFFFF3" r="2"/><circle cx="279.026" cy="155.132" transform="rotate(-.76 279.026 155.132)" fill="#FFFFF3" r="2"/><circle cx="279.026" cy="161.185" transform="rotate(-.76 279.026 161.185)" fill="#FFFFF3" r="2"/><circle cx="285.026" cy="53.026" transform="rotate(-.76 285.026 53.026)" fill="#FFFFF3" r="2"/><circle cx="285.026" cy="58.973" transform="rotate(-.76 285.026 58.973)" fill="#FFFFF3" r="2"/><circle cx="285.026" cy="64.973" transform="rotate(-.76 285.026 64.973)" fill="#FFFFF3" r="2"/><circle cx="285.026" cy="70.973" transform="rotate(-.76 285.026 70.973)" fill="#FFFFF3" r="2"/><circle cx="285.026" cy="76.973" transform="rotate(-.76 285.026 76.973)" fill="#FFFFF3" r="2"/><circle cx="285.026" cy="82.973" transform="rotate(-.76 285.026 82.973)" fill="#FFFFF3" r="2"/><circle cx="285.026" cy="88.973" transform="rotate(-.76 285.026 88.973)" fill="#FFFFF3" r="2"/><circle cx="285.026" cy="94.973" transform="rotate(-.76 285.026 94.973)" fill="#FFFFF3" r="2"/><circle cx="285.026" cy="100.974" transform="rotate(-.76 285.026 100.974)" fill="#FFFFF3" r="2"/><circle cx="285.026" cy="106.974" transform="rotate(-.76 285.026 106.974)" fill="#FFFFF3" r="2"/><circle cx="285.026" cy="112.974" transform="rotate(-.76 285.026 112.974)" fill="#FFFFF3" r="2"/><circle cx="285.026" cy="118.974" transform="rotate(-.76 285.026 118.974)" fill="#FFFFF3" r="2"/><circle cx="285.026" cy="124.974" transform="rotate(-.76 285.026 124.974)" fill="#FFFFF3" r="2"/><circle cx="285.026" cy="130.974" transform="rotate(-.76 285.026 130.974)" fill="#FFFFF3" r="2"/><circle cx="285.026" cy="136.974" transform="rotate(-.76 285.026 136.974)" fill="#FFFFF3" r="2"/><circle cx="285.026" cy="143.026" transform="rotate(-.76 285.026 143.026)" fill="#FFFFF3" r="2"/><circle cx="285.026" cy="149.079" transform="rotate(-.76 285.026 149.079)" fill="#FFFFF3" r="2"/><circle cx="285.026" cy="155.132" transform="rotate(-.76 285.026 155.132)" fill="#FFFFF3" r="2"/><circle cx="285.026" cy="161.185" transform="rotate(-.76 285.026 161.185)" fill="#FFFFF3" r="2"/><circle cx="291.026" cy="53.026" transform="rotate(-.76 291.026 53.026)" fill="#FFFFF3" r="2"/><circle cx="291.026" cy="58.973" transform="rotate(-.76 291.026 58.973)" fill="#FFFFF3" r="2"/><circle cx="291.026" cy="64.973" transform="rotate(-.76 291.026 64.973)" fill="#FFFFF3" r="2"/><circle cx="291.026" cy="70.973" transform="rotate(-.76 291.026 70.973)" fill="#FFFFF3" r="2"/><circle cx="291.026" cy="76.973" transform="rotate(-.76 291.026 76.973)" fill="#FFFFF3" r="2"/><circle cx="291.026" cy="82.973" transform="rotate(-.76 291.026 82.973)" fill="#FFFFF3" r="2"/><circle cx="291.026" cy="88.973" transform="rotate(-.76 291.026 88.973)" fill="#FFFFF3" r="2"/><circle cx="291.026" cy="94.973" transform="rotate(-.76 291.026 94.973)" fill="#FFFFF3" r="2"/><circle cx="291.026" cy="100.974" transform="rotate(-.76 291.026 100.974)" fill="#FFFFF3" r="2"/><circle cx="291.026" cy="106.974" transform="rotate(-.76 291.026 106.974)" fill="#FFFFF3" r="2"/><circle cx="291.026" cy="112.974" transform="rotate(-.76 291.026 112.974)" fill="#FFFFF3" r="2"/><circle cx="291.026" cy="118.974" transform="rotate(-.76 291.026 118.974)" fill="#FFFFF3" r="2"/><circle cx="291.026" cy="124.974" transform="rotate(-.76 291.026 124.974)" fill="#FFFFF3" r="2"/><circle cx="291.026" cy="130.974" transform="rotate(-.76 291.026 130.974)" fill="#FFFFF3" r="2"/><circle cx="291.026" cy="136.974" transform="rotate(-.76 291.026 136.974)" fill="#FFFFF3" r="2"/><circle cx="291.026" cy="143.026" transform="rotate(-.76 291.026 143.026)" fill="#FFFFF3" r="2"/><circle cx="291.026" cy="149.079" transform="rotate(-.76 291.026 149.079)" fill="#FFFFF3" r="2"/><circle cx="291.026" cy="155.132" transform="rotate(-.76 291.026 155.132)" fill="#FFFFF3" r="2"/><circle cx="291.026" cy="161.185" transform="rotate(-.76 291.026 161.185)" fill="#FFFFF3" r="2"/><circle cx="297.026" cy="53.026" transform="rotate(-.76 297.026 53.026)" fill="#FFFFF3" r="2"/><circle cx="297.026" cy="58.973" transform="rotate(-.76 297.026 58.973)" fill="#FFFFF3" r="2"/><circle cx="297.026" cy="64.973" transform="rotate(-.76 297.026 64.973)" fill="#FFFFF3" r="2"/><circle cx="297.026" cy="70.973" transform="rotate(-.76 297.026 70.973)" fill="#FFFFF3" r="2"/><circle cx="297.026" cy="76.973" transform="rotate(-.76 297.026 76.973)" fill="#FFFFF3" r="2"/><circle cx="297.026" cy="82.973" transform="rotate(-.76 297.026 82.973)" fill="#FFFFF3" r="2"/><circle cx="297.026" cy="88.973" transform="rotate(-.76 297.026 88.973)" fill="#FFFFF3" r="2"/><circle cx="297.026" cy="94.973" transform="rotate(-.76 297.026 94.973)" fill="#FFFFF3" r="2"/><circle cx="297.026" cy="100.974" transform="rotate(-.76 297.026 100.974)" fill="#FFFFF3" r="2"/><circle cx="297.026" cy="106.974" transform="rotate(-.76 297.026 106.974)" fill="#FFFFF3" r="2"/><circle cx="297.026" cy="112.974" transform="rotate(-.76 297.026 112.974)" fill="#FFFFF3" r="2"/><circle cx="297.026" cy="118.974" transform="rotate(-.76 297.026 118.974)" fill="#FFFFF3" r="2"/><circle cx="297.026" cy="124.974" transform="rotate(-.76 297.026 124.974)" fill="#FFFFF3" r="2"/><circle cx="297.026" cy="130.974" transform="rotate(-.76 297.026 130.974)" fill="#FFFFF3" r="2"/><circle cx="297.026" cy="136.974" transform="rotate(-.76 297.026 136.974)" fill="#FFFFF3" r="2"/><circle cx="297.026" cy="143.026" transform="rotate(-.76 297.026 143.026)" fill="#FFFFF3" r="2"/><circle cx="297.026" cy="149.079" transform="rotate(-.76 297.026 149.079)" fill="#FFFFF3" r="2"/><circle cx="297.026" cy="155.132" transform="rotate(-.76 297.026 155.132)" fill="#FFFFF3" r="2"/><circle cx="297.026" cy="161.185" transform="rotate(-.76 297.026 161.185)" fill="#FFFFF3" r="2"/><circle cx="303.026" cy="53.026" transform="rotate(-.76 303.026 53.026)" fill="#FFFFF3" r="2"/><circle cx="303.026" cy="58.973" transform="rotate(-.76 303.026 58.973)" fill="#FFFFF3" r="2"/><circle cx="303.026" cy="64.973" transform="rotate(-.76 303.026 64.973)" fill="#FFFFF3" r="2"/><circle cx="303.026" cy="70.973" transform="rotate(-.76 303.026 70.973)" fill="#FFFFF3" r="2"/><circle cx="303.026" cy="76.973" transform="rotate(-.76 303.026 76.973)" fill="#FFFFF3" r="2"/><circle cx="303.026" cy="82.973" transform="rotate(-.76 303.026 82.973)" fill="#FFFFF3" r="2"/><circle cx="303.026" cy="88.973" transform="rotate(-.76 303.026 88.973)" fill="#FFFFF3" r="2"/><circle cx="303.026" cy="94.973" transform="rotate(-.76 303.026 94.973)" fill="#FFFFF3" r="2"/><circle cx="303.026" cy="100.974" transform="rotate(-.76 303.026 100.974)" fill="#FFFFF3" r="2"/><circle cx="303.026" cy="106.974" transform="rotate(-.76 303.026 106.974)" fill="#FFFFF3" r="2"/><circle cx="303.026" cy="112.974" transform="rotate(-.76 303.026 112.974)" fill="#FFFFF3" r="2"/><circle cx="303.026" cy="118.974" transform="rotate(-.76 303.026 118.974)" fill="#FFFFF3" r="2"/><circle cx="303.026" cy="124.974" transform="rotate(-.76 303.026 124.974)" fill="#FFFFF3" r="2"/><circle cx="303.026" cy="130.974" transform="rotate(-.76 303.026 130.974)" fill="#FFFFF3" r="2"/><circle cx="303.026" cy="136.974" transform="rotate(-.76 303.026 136.974)" fill="#FFFFF3" r="2"/><circle cx="303.026" cy="143.026" transform="rotate(-.76 303.026 143.026)" fill="#FFFFF3" r="2"/><circle cx="303.026" cy="149.079" transform="rotate(-.76 303.026 149.079)" fill="#FFFFF3" r="2"/><circle cx="303.026" cy="155.132" transform="rotate(-.76 303.026 155.132)" fill="#FFFFF3" r="2"/><circle cx="303.026" cy="161.185" transform="rotate(-.76 303.026 161.185)" fill="#FFFFF3" r="2"/><circle cx="155.329" cy="58.092" r="7" transform="rotate(-.76 155.329 58.092)" fill="#FFFFF3"/><circle cx="141.263" cy="76.027" transform="rotate(-.76 141.263 76.027)" fill="#FFFFF3" r="2"/><circle cx="141.263" cy="81.974" transform="rotate(-.76 141.263 81.974)" fill="#FFFFF3" r="2"/><circle cx="141.263" cy="87.974" transform="rotate(-.76 141.263 87.974)" fill="#FFFFF3" r="2"/><circle cx="141.263" cy="93.974" transform="rotate(-.76 141.263 93.974)" fill="#FFFFF3" r="2"/><circle cx="141.263" cy="99.974" transform="rotate(-.76 141.263 99.974)" fill="#FFFFF3" r="2"/><circle cx="141.263" cy="105.974" transform="rotate(-.76 141.263 105.974)" fill="#FFFFF3" r="2"/><circle cx="141.263" cy="111.974" transform="rotate(-.76 141.263 111.974)" fill="#FFFFF3" r="2"/><circle cx="141.263" cy="117.974" transform="rotate(-.76 141.263 117.974)" fill="#FFFFF3" r="2"/><circle cx="141.263" cy="123.974" transform="rotate(-.76 141.263 123.974)" fill="#FFFFF3" r="2"/><circle cx="141.263" cy="129.975" transform="rotate(-.76 141.263 129.975)" fill="#FFFFF3" r="2"/><circle cx="141.263" cy="135.975" transform="rotate(-.76 141.263 135.975)" fill="#FFFFF3" r="2"/><circle cx="141.263" cy="141.975" transform="rotate(-.76 141.263 141.975)" fill="#FFFFF3" r="2"/><circle cx="141.263" cy="147.975" transform="rotate(-.76 141.263 147.975)" fill="#FFFFF3" r="2"/><circle cx="141.263" cy="153.975" transform="rotate(-.76 141.263 153.975)" fill="#FFFFF3" r="2"/><circle cx="141.263" cy="159.975" transform="rotate(-.76 141.263 159.975)" fill="#FFFFF3" r="2"/><circle cx="155.356" cy="83.103" r="9" transform="rotate(-.76 155.356 83.103)" fill="#FFFFF3"/><circle cx="155.356" cy="118.119" r="9" transform="rotate(-.76 155.356 118.119)" fill="#FFFFF3"/><circle cx="155.356" cy="153.136" r="9" transform="rotate(-.76 155.356 153.136)" fill="#FFFFF3"/><rect x="141.237" y="170.001" width="23" height="9" rx="2" fill="#FFFFF3"/><rect x="151.237" y="188.001" width="3" height="87" rx="1" fill="#FFFFF3"/><rect x="142.237" y="205.001" width="21" height="6" rx="1" fill="#FFFFF3"/><rect x="141.237" y="283.001" width="23" height="16" rx="2" fill="#FFFFF3"/><rect x="141.237" y="310.001" width="23" height="16" rx="2" fill="#FFFFF3"/><circle cx="196.566" cy="58.092" r="7" transform="rotate(-.76 196.566 58.092)" fill="#FFFFF3"/><circle cx="182.5" cy="76.027" transform="rotate(-.76 182.5 76.027)" fill="#FFFFF3" r="2"/><circle cx="182.5" cy="81.974" transform="rotate(-.76 182.5 81.974)" fill="#FFFFF3" r="2"/><circle cx="182.5" cy="87.974" transform="rotate(-.76 182.5 87.974)" fill="#FFFFF3" r="2"/><circle cx="182.5" cy="93.974" transform="rotate(-.76 182.5 93.974)" fill="#FFFFF3" r="2"/><circle cx="182.5" cy="99.974" transform="rotate(-.76 182.5 99.974)" fill="#FFFFF3" r="2"/><circle cx="182.5" cy="105.974" transform="rotate(-.76 182.5 105.974)" fill="#FFFFF3" r="2"/><circle cx="182.5" cy="111.974" transform="rotate(-.76 182.5 111.974)" fill="#FFFFF3" r="2"/><circle cx="182.5" cy="117.974" transform="rotate(-.76 182.5 117.974)" fill="#FFFFF3" r="2"/><circle cx="182.5" cy="123.974" transform="rotate(-.76 182.5 123.974)" fill="#FFFFF3" r="2"/><circle cx="182.5" cy="129.975" transform="rotate(-.76 182.5 129.975)" fill="#FFFFF3" r="2"/><circle cx="182.5" cy="135.975" transform="rotate(-.76 182.5 135.975)" fill="#FFFFF3" r="2"/><circle cx="182.5" cy="141.975" transform="rotate(-.76 182.5 141.975)" fill="#FFFFF3" r="2"/><circle cx="182.5" cy="147.975" transform="rotate(-.76 182.5 147.975)" fill="#FFFFF3" r="2"/><circle cx="182.5" cy="153.975" transform="rotate(-.76 182.5 153.975)" fill="#FFFFF3" r="2"/><circle cx="182.5" cy="159.975" transform="rotate(-.76 182.5 159.975)" fill="#FFFFF3" r="2"/><circle cx="196.593" cy="83.103" r="9" transform="rotate(-.76 196.593 83.103)" fill="#FFFFF3"/><circle cx="196.593" cy="118.119" r="9" transform="rotate(-.76 196.593 118.119)" fill="#FFFFF3"/><circle cx="196.593" cy="153.136" r="9" transform="rotate(-.76 196.593 153.136)" fill="#FFFFF3"/><rect x="182.474" y="170.001" width="23" height="9" rx="2" fill="#FFFFF3"/><rect x="192.474" y="188.001" width="3" height="87" rx="1" fill="#FFFFF3"/><rect x="183.474" y="205.001" width="21" height="6" rx="1" fill="#FFFFF3"/><rect x="182.474" y="283.001" width="23" height="16" rx="2" fill="#FFFFF3"/><rect x="182.474" y="310.001" width="23" height="16" rx="2" fill="#FFFFF3"/><circle cx="237.803" cy="58.092" r="7" transform="rotate(-.76 237.803 58.092)" fill="#FFFFF3"/><circle cx="223.737" cy="76.027" transform="rotate(-.76 223.737 76.027)" fill="#FFFFF3" r="2"/><circle cx="223.737" cy="81.974" transform="rotate(-.76 223.737 81.974)" fill="#FFFFF3" r="2"/><circle cx="223.737" cy="87.974" transform="rotate(-.76 223.737 87.974)" fill="#FFFFF3" r="2"/><circle cx="223.737" cy="93.974" transform="rotate(-.76 223.737 93.974)" fill="#FFFFF3" r="2"/><circle cx="223.737" cy="99.974" transform="rotate(-.76 223.737 99.974)" fill="#FFFFF3" r="2"/><circle cx="223.737" cy="105.974" transform="rotate(-.76 223.737 105.974)" fill="#FFFFF3" r="2"/><circle cx="223.737" cy="111.974" transform="rotate(-.76 223.737 111.974)" fill="#FFFFF3" r="2"/><circle cx="223.737" cy="117.974" transform="rotate(-.76 223.737 117.974)" fill="#FFFFF3" r="2"/><circle cx="223.737" cy="123.974" transform="rotate(-.76 223.737 123.974)" fill="#FFFFF3" r="2"/><circle cx="223.737" cy="129.975" transform="rotate(-.76 223.737 129.975)" fill="#FFFFF3" r="2"/><circle cx="223.737" cy="135.975" transform="rotate(-.76 223.737 135.975)" fill="#FFFFF3" r="2"/><circle cx="223.737" cy="141.975" transform="rotate(-.76 223.737 141.975)" fill="#FFFFF3" r="2"/><circle cx="223.737" cy="147.975" transform="rotate(-.76 223.737 147.975)" fill="#FFFFF3" r="2"/><circle cx="223.737" cy="153.975" transform="rotate(-.76 223.737 153.975)" fill="#FFFFF3" r="2"/><circle cx="223.737" cy="159.975" transform="rotate(-.76 223.737 159.975)" fill="#FFFFF3" r="2"/><circle cx="237.829" cy="83.103" r="9" transform="rotate(-.76 237.829 83.103)" fill="#FFFFF3"/><circle cx="237.829" cy="118.119" r="9" transform="rotate(-.76 237.829 118.119)" fill="#FFFFF3"/><circle cx="237.829" cy="153.136" r="9" transform="rotate(-.76 237.829 153.136)" fill="#FFFFF3"/><rect x="223.711" y="170.001" width="23" height="9" rx="2" fill="#FFFFF3"/><rect x="233.711" y="188.001" width="3" height="87" rx="1" fill="#FFFFF3"/><rect x="224.711" y="205.001" width="21" height="6" rx="1" fill="#FFFFF3"/><rect x="223.711" y="283.001" width="23" height="16" rx="2" fill="#FFFFF3"/><rect x="223.711" y="310.001" width="23" height="16" rx="2" fill="#FFFFF3"/><circle cx="112.092" cy="349.092" r="7" transform="rotate(-.76 112.092 349.092)" fill="#FFFFF3"/><circle cx="153.092" cy="349.092" r="7" transform="rotate(-.76 153.092 349.092)" fill="#FFFFF3"/><rect x="182" y="341" width="23" height="16" rx="2" fill="#FFFFF3"/><rect x="224" y="341" width="23" height="16" rx="2" fill="#FFFFF3"/><circle cx="282.184" cy="231.184" r="14" transform="rotate(-.76 282.184 231.184)" fill="#FFFFF3"/><circle cx="282.131" cy="265.131" r="9.012" transform="rotate(-.76 282.131 265.131)" fill="#FFFFF3"/><circle cx="282.131" cy="317.131" r="9.012" transform="rotate(-.76 282.131 317.131)" fill="#FFFFF3"/><circle cx="282.131" cy="348.131" r="9.012" transform="rotate(-.76 282.131 348.131)" fill="#FFFFF3"/><rect x="259" y="170" width="46" height="29" rx="2" fill="#FFFFF3"/></svg>