<svg width="400" height="400" fill="none" xmlns="http://www.w3.org/2000/svg"><path d="M0 6a6 6 0 0 1 6-6h388a6 6 0 0 1 6 6v388a6 6 0 0 1-6 6H6a6 6 0 0 1-6-6V6Z" fill="#292F36"/><path fill-rule="evenodd" clip-rule="evenodd" d="M284 30H116v340h168V30Zm-174-6v352h180V24H110Z" fill="#FFFFF3"/><circle cx="155.092" cy="49.092" r="7" transform="rotate(-.76 155.092 49.092)" fill="#FFFFF3"/><circle cx="155.092" cy="71.276" r="7" transform="rotate(-.76 155.092 71.276)" fill="#FFFFF3"/><circle cx="185.277" cy="49.092" r="7" transform="rotate(-.76 185.277 49.092)" fill="#FFFFF3"/><circle cx="185.277" cy="71.276" r="7" transform="rotate(-.76 185.277 71.276)" fill="#FFFFF3"/><circle cx="215.461" cy="49.092" r="7" transform="rotate(-.76 215.461 49.092)" fill="#FFFFF3"/><circle cx="215.461" cy="71.276" r="7" transform="rotate(-.76 215.461 71.276)" fill="#FFFFF3"/><circle cx="245.645" cy="49.092" r="7" transform="rotate(-.76 245.645 49.092)" fill="#FFFFF3"/><circle cx="245.645" cy="71.276" r="7" transform="rotate(-.76 245.645 71.276)" fill="#FFFFF3"/><circle cx="155.092" cy="220.092" r="7" transform="rotate(-.76 155.092 220.092)" fill="#FFFFF3"/><circle cx="185.277" cy="220.092" r="7" transform="rotate(-.76 185.277 220.092)" fill="#FFFFF3"/><circle cx="215.461" cy="220.092" r="7" transform="rotate(-.76 215.461 220.092)" fill="#FFFFF3"/><circle cx="245.645" cy="220.092" r="7" transform="rotate(-.76 245.645 220.092)" fill="#FFFFF3"/><path fill-rule="evenodd" clip-rule="evenodd" d="M145 92v110h110V92H145Zm-4-6a2 2 0 0 0-2 2v118a2 2 0 0 0 2 2h118a2 2 0 0 0 2-2V88a2 2 0 0 0-2-2H141Z" fill="#FFFFF3"/><rect x="144" y="235" width="24" height="24" rx="2" fill="#FFFFF3"/><rect x="234" y="328" width="24" height="24" rx="2" fill="#FFFFF3"/><rect x="144" y="266" width="24" height="24" rx="2" fill="#FFFFF3"/><rect x="144" y="297" width="24" height="24" rx="2" fill="#FFFFF3"/><rect x="144" y="328" width="24" height="24" rx="2" fill="#FFFFF3"/><rect x="174" y="235" width="24" height="24" rx="2" fill="#FFFFF3"/><rect x="174" y="266" width="24" height="24" rx="2" fill="#FFFFF3"/><rect x="174" y="297" width="24" height="24" rx="2" fill="#FFFFF3"/><rect x="174" y="328" width="24" height="24" rx="2" fill="#FFFFF3"/><rect x="204" y="235" width="24" height="24" rx="2" fill="#FFFFF3"/><rect x="204" y="266" width="24" height="24" rx="2" fill="#FFFFF3"/><rect x="204" y="297" width="24" height="24" rx="2" fill="#FFFFF3"/><rect x="204" y="328" width="24" height="24" rx="2" fill="#FFFFF3"/><rect x="234" y="235" width="24" height="24" rx="2" fill="#FFFFF3"/><rect x="234" y="266" width="24" height="24" rx="2" fill="#FFFFF3"/><rect x="234" y="297" width="24" height="24" rx="2" fill="#FFFFF3"/></svg>