<svg width="74" height="74" fill="none" xmlns="http://www.w3.org/2000/svg"><path d="M40.49 5.582a3.491 3.491 0 1 1-6.981 0 3.491 3.491 0 0 1 6.982 0Zm0 62.834a3.49 3.49 0 1 1-6.981 0 3.49 3.49 0 0 1 6.982 0Zm22.256-53.671a3.49 3.49 0 1 1-6.982 0 3.49 3.49 0 0 1 6.982 0Zm-44.51 44.51a3.49 3.49 0 1 1-6.982 0 3.49 3.49 0 0 1 6.982 0Zm-2.509-13.528c.109.109.109.109.109.218v7.746c1.091.218 2.182.763 2.945 1.527.873.873 1.419 1.854 1.528 2.945h7.854s0 .11.109.11l5.455 5.454c.872-.655 2.072-.982 3.272-.982 1.2 0 2.291.327 3.273.982l5.455-5.455s0-.109.109-.109h7.854c.218-1.09.764-2.182 1.527-2.945.873-.873 1.855-1.418 2.946-1.527v-7.855s.109 0 .109-.109l5.454-5.454c-.654-.873-.981-2.073-.981-3.273 0-1.2.327-2.291.981-3.273l-5.454-5.455s-.11 0-.11-.109V20.31c-1.09-.218-2.181-.764-2.945-1.527-.872-.873-1.418-1.855-1.527-2.946h-7.855s0-.109-.108-.109l-5.455-5.454c-.873.655-2.073.982-3.273.982-1.2 0-2.29-.328-3.272-.982l-5.455 5.454s0 .11-.109.11h-7.854c-.219 1.09-.764 2.181-1.528 2.945-.872.873-1.854 1.418-2.945 1.527v7.855s-.109 0-.109.108l-5.454 5.455c.654.873.981 2.073.981 3.273 0 1.2-.327 2.29-.981 3.273l5.454 5.454ZM29.8 56.745c-.218-.218-.545-.327-.873-.327-.218-.218-.545-.436-.873-.436h-4.581c.109-.11.218-.11 9.49-9.382.11 9.273.11 11.455.11 13.31L29.8 56.744Zm16.036-.654c-.327 0-.654.218-.873.436-.327 0-.654.11-.872.328l-3.273 3.273c0-.219 0-.219.109-13.31 6.654 6.546 8.181 7.964 9.49 9.382h-4.581v-.109Zm10.91-11.89c-.219.217-.328.545-.328.872-.218.218-.436.545-.436.873v4.582c-.11-.11-.11-.218-9.382-9.491 9.273-.11 11.455-.11 13.31-.11L56.745 44.2Zm-.655-20.728v4.582c0 .327.218.655.437.873 0 .327.108.654.327.873l3.273 3.273c-.219 0-.219 0-13.31-.11 6.437-6.545 7.855-8.072 9.273-9.49Zm-11.89-6.218c.218.218.545.327.872.327.218.218.545.436.873.436h4.582c-.11.11-.218.11-9.491 9.382-.11-9.273-.11-11.455-.11-13.31l3.273 3.165ZM33.618 28.927c1.09.764 2.618.11 2.618-1.309l.109-5.89c0-.328.327-.655.655-.655.327 0 .654.327.654.654l.11 5.891c0 1.31 1.526 2.073 2.617 1.31.218 1.418 1.746 1.745 2.727.981l4.255-4.036c.218-.219.655-.219.873 0 .218.218.218.654 0 .872L44.2 31c-.872.873-.545 2.509.873 2.727-.763 1.091-.109 2.619 1.31 2.619l5.89.108c.327 0 .655.328.655.655s-.327.655-.655.655l-5.89.109c-1.31 0-2.074 1.527-1.31 2.618-1.418.218-1.854 1.745-.981 2.727l4.036 4.255c.218.218.218.654 0 .872-.218.219-.655.219-.873 0L43 44.31c-.872-.873-2.508-.545-2.727.873-1.09-.764-2.618-.11-2.618 1.309v5.782c0 .327-.327.654-.654.654-.328 0-.655-.327-.655-.654l-.11-5.891c0-1.31-1.526-2.073-2.617-1.31-.218-1.417-1.746-1.854-2.727-.98l-4.255 4.035c-.218.219-.655.219-.873 0-.218-.218-.218-.654 0-.872L29.801 43c.872-.873.545-2.509-.873-2.727.763-1.091.109-2.618-1.31-2.618h-5.89c-.328 0-.655-.328-.655-.655s.327-.655.655-.655l5.89-.108c1.31 0 2.074-1.528 1.31-2.619 1.418-.218 1.745-1.745.982-2.727l-4.037-4.254c-.218-.219-.218-.655 0-.873.218-.219.655-.219.873 0L31 29.8c.763.873 2.4.545 2.618-.873ZM28.164 17.91c.327 0 .655-.218.873-.437.327 0 .655-.109.873-.327l3.273-3.273c0 .219 0 .219-.11 13.31-6.654-6.546-8.181-7.964-9.49-9.382h4.581v.109ZM17.254 29.8c.22-.218.328-.545.328-.872.218-.218.436-.546.436-.873v-4.582c.11.11.11.218 9.382 9.491-9.273.109-11.454.109-13.31.109l3.165-3.272Zm10.037 11.237c-6.545 6.654-7.964 8.181-9.381 9.49v-4.581c0-.327-.219-.655-.437-.873 0-.327-.109-.655-.327-.873l-3.273-3.273c.327 0 .327 0 13.418.11ZM71.908 37a3.49 3.49 0 1 1-6.982 0 3.49 3.49 0 0 1 6.982 0ZM9.073 37a3.491 3.491 0 1 1-6.982 0 3.491 3.491 0 0 1 6.982 0Zm53.673 22.255a3.49 3.49 0 1 1-6.981 0 3.49 3.49 0 0 1 6.981 0Zm-44.51-44.51a3.491 3.491 0 1 1-6.982 0 3.491 3.491 0 0 1 6.982 0Z" fill="#FFFFF3"/></svg>