<svg width="74" height="74" fill="none" xmlns="http://www.w3.org/2000/svg"><path d="M53.443 50.384c-.75-2.1-1.785-3.731-4.9-5.642a14.224 14.224 0 0 1-5.663-6.3 3.436 3.436 0 0 1-.231-.7 5.747 5.747 0 0 1 .875-4.32A5.02 5.02 0 0 1 44 32.8a4.816 4.816 0 0 1 3.325-1.512 6.469 6.469 0 0 0-3.556-.063 4.095 4.095 0 0 0-2.646 2.45 5.815 5.815 0 0 0-.231.7 7.023 7.023 0 0 0-.175.833 8.614 8.614 0 0 0 0 2.31.497.497 0 0 1-.938.28c-1.183-2.681-2.884-2.975-3.556-2.975h-.084a3.435 3.435 0 0 0-.406 0l-.133.077-.427.056a3.237 3.237 0 0 0-1.785 1.21 6.539 6.539 0 0 0-1.113 2.675c-.033.158-.063.324-.091.497-.028.172-.056.326-.084.462a23.895 23.895 0 0 0 .119 5.712c3.822 5.6 9.296 8.568 14.238 9.009 3.843.343 5.159-.371 6.377-1.26a2.47 2.47 0 0 1 1.701-.476 22.89 22.89 0 0 1 1.736.245l.546.09V51.7c-1.547 0-2.94-.091-3.374-1.316Z" fill="#FFFFF3"/><path d="M45.253 28.824c-.736.455-1.422.988-2.044 1.589l.294-.098A6.432 6.432 0 0 1 45.4 30a11.12 11.12 0 0 1 6.482 2.492c2.359 1.77 5.726 5.32 8.4 12.145.574 1.477 1.526 2.436 1.96 2.47v.001a.091.091 0 0 0 .077 0c.084-1.085.525-9.625-5.516-15.54-1.897-1.813-6.762-5.768-11.55-2.744Zm-23.079 9.499a6.519 6.519 0 0 1 2.352-1.001 5.998 5.998 0 0 1 2.716-2.289l-.245-.77a36.32 36.32 0 0 1-.378-1.323 8.4 8.4 0 0 0-3.766.105 10.949 10.949 0 0 0-6.678 5.152 15.96 15.96 0 0 0-1.547 12.194c.298 1.244.83 2.42 1.568 3.465a4.587 4.587 0 0 0 2.1 1.806c.034.02.077.02.112 0a.085.085 0 0 0 0-.077c-.091-.7-.273-2.184-.462-4.809-.35-5.838 1.169-10.367 4.228-12.453Zm6.895-27.055c-2.884 4.9-3.5 13.398-1.631 20.881.098.378.203.756.308 1.134.063.231.126.462.196.7l.273.875 1.715-.224.77-.112.994-.126 3.255-.42c.394-.09.8-.126 1.204-.105a4.03 4.03 0 0 1 1.49.294c.323.132.628.3.91.504a5.35 5.35 0 0 1 1.114 1.078c0-.294.056-.602.119-.966.026-.305.08-.608.16-.903l.07-.252c-1.812-4.522-3.5-11.2-2.246-20.909.245-1.89 0-3.29-.7-4.2a3.78 3.78 0 0 0-2.723-1.218c-1.834-.154-3.647 1.176-5.278 3.969Z" fill="#FFFFF3"/><path d="M31.288 45.897c-.05-.399-.091-.784-.133-1.162-.042-.378-.07-.742-.091-1.1v.001c-.105-1.4-.067-2.807.112-4.2 0-.168.049-.336.077-.504.028-.168.063-.336.098-.497a7.381 7.381 0 0 1 1.26-2.891c.077-.105.168-.21.26-.315l-1.023.133-1.07.14-2.255.287-.35.042h-.147l-.343.05-.14.062-.343.19c-.507.27-.961.627-1.344 1.056a6.26 6.26 0 0 0-.756 1.05 8.893 8.893 0 0 0-.7 1.722c-1.96 5.978.217 16.065 3.5 21.084 2.331 3.598 4.445 5.075 7.42 5.152a15.851 15.851 0 0 0-.658-6.524 80.337 80.337 0 0 1-3.374-13.776Z" fill="#FFFFF3"/></svg>