<svg width="74" height="74" fill="none" xmlns="http://www.w3.org/2000/svg"><path d="M29.464 41.334h1.591l4.585 3.809a.465.465 0 0 0 .761-.357v-7.197a.655.655 0 0 0 0-.928v-7.197a.463.463 0 0 0-.76-.357l-4.586 3.809h-1.59a.465.465 0 0 0-.465.464v7.49a.466.466 0 0 0 .464.464Zm8.529-.664a.464.464 0 1 0 .457.81 4.868 4.868 0 0 0 1.838-1.836 5.002 5.002 0 0 0 .004-5.03 4.876 4.876 0 0 0-1.842-1.843.464.464 0 1 0-.457.809 3.952 3.952 0 0 1 1.495 1.498 4.076 4.076 0 0 1-.004 4.102 3.945 3.945 0 0 1-1.491 1.49Z" fill="#FFFFF3"/><path d="M44 32.469a9.354 9.354 0 0 0-3.406-3.406.464.464 0 1 0-.465.803 8.382 8.382 0 0 1 0 14.518.464.464 0 0 0 .465.803A9.304 9.304 0 0 0 44 32.47Z" fill="#FFFFF3"/><path stroke="#FFFFF3" d="M10.707 36.87 36.87 10.707 63.033 36.87 36.87 63.033z"/><circle cx="11" cy="37" r="6" fill="#FFFFF3"/><circle cx="37" cy="63" r="6" fill="#FFFFF3"/><circle cx="63" cy="37" r="6" fill="#FFFFF3"/><circle cx="37" cy="11" r="6" fill="#FFFFF3"/></svg>